# MagicaVoxel @ Ephtracy

# group
o Door

# material
mtllib Keycard door-0-Door.mtl
usemtl palette

# normals
vn -1 0 0
vn 1 0 0
vn 0 0 1
vn 0 0 -1
vn 0 -1 0
vn 0 1 0

# texcoords
vt 0.939453 0.5
vt 0.943359 0.5
vt 0.970703 0.5
vt 0.978516 0.5
vt 0.982422 0.5
vt 0.986328 0.5
vt 0.990234 0.5
vt 0.994141 0.5

# verts
v -2.9 0.9 0
v -2.9 0.9 -0.1
v -2.9 12.4 0
v -2.9 12.4 -0.1
v -2.9 12.8 0
v -2.9 12.8 -0.1
v -2.8 6.4 0.1
v -2.8 6.4 0
v -2.8 6.4 -0.1
v -2.8 6.4 -0.2
v -2.8 7 0.1
v -2.8 7 0
v -2.8 7 -0.1
v -2.8 7 -0.2
v -2.6 7.9 0.2
v -2.6 7.9 0
v -2.6 7.9 -0.1
v -2.6 7.9 -0.3
v -2.6 8 0.2
v -2.6 8 0.1
v -2.6 8 -0.2
v -2.6 8 -0.3
v -2.6 8.1 0.2
v -2.6 8.1 0.1
v -2.6 8.1 -0.2
v -2.6 8.1 -0.3
v -2.6 8.2 0.2
v -2.6 8.2 0.1
v -2.6 8.2 -0.2
v -2.6 8.2 -0.3
v -2.6 9 0.1
v -2.6 9 0
v -2.6 9 -0.1
v -2.6 9 -0.2
v -2.1 8.3 0.1
v -2.1 8.3 0
v -2.1 8.3 -0.1
v -2.1 8.3 -0.2
v -2.1 8.4 0
v -2.1 8.4 -0.1
v -2.1 8.5 0
v -2.1 8.5 -0.1
v -2.1 8.8 0
v -2.1 8.8 -0.1
v -2.1 8.9 0.1
v -2.1 8.9 0
v -2.1 8.9 -0.1
v -2.1 8.9 -0.2
v -2.5 8.3 0.1
v -2.5 8.3 0
v -2.5 8.3 -0.1
v -2.5 8.3 -0.2
v -2.5 8.4 0
v -2.5 8.4 -0.1
v -2.5 8.5 0
v -2.5 8.5 -0.1
v -2.5 8.6 0
v -2.5 8.6 -0.1
v -2.5 8.8 0
v -2.5 8.8 -0.1
v -2.5 8.9 0.1
v -2.5 8.9 0
v -2.5 8.9 -0.1
v -2.5 8.9 -0.2
v -1.6 7.9 0.2
v -1.6 7.9 0
v -1.6 7.9 -0.1
v -1.6 7.9 -0.3
v -1.6 8 0.2
v -1.6 8 0.1
v -1.6 8 -0.2
v -1.6 8 -0.3
v -1.6 8.1 0.2
v -1.6 8.1 0.1
v -1.6 8.1 -0.2
v -1.6 8.1 -0.3
v -1.6 8.2 0.2
v -1.6 8.2 0.1
v -1.6 8.2 -0.2
v -1.6 8.2 -0.3
v -1.6 9 0.1
v -1.6 9 0
v -1.6 9 -0.1
v -1.6 9 -0.2
v 2.5 6.4 0.1
v 2.5 6.4 0
v 2.5 6.4 -0.1
v 2.5 6.4 -0.2
v 2.5 7 0.1
v 2.5 7 0
v 2.5 7 -0.1
v 2.5 7 -0.2
v 2.7 0.9 0
v 2.7 0.9 -0.1
v 2.7 1.3 0
v 2.7 1.3 -0.1
v 2.7 1.6 0
v 2.7 1.6 -0.1
v 2.7 2 0
v 2.7 2 -0.1
v 2.7 2.3 0
v 2.7 2.3 -0.1
v 2.7 11.2 0
v 2.7 11.2 -0.1
v 2.7 11.5 0
v 2.7 11.5 -0.1
v 2.7 11.9 0
v 2.7 11.9 -0.1
v 2.7 12.2 0
v 2.7 12.2 -0.1
v 2.7 12.8 0
v 2.7 12.8 -0.1
v 2.8 1.3 0
v 2.8 1.3 -0.1
v 2.8 1.6 0
v 2.8 1.6 -0.1
v 2.8 2 0
v 2.8 2 -0.1
v 2.8 2.3 0
v 2.8 2.3 -0.1
v 2.8 11.2 0
v 2.8 11.2 -0.1
v 2.8 11.5 0
v 2.8 11.5 -0.1
v 2.8 11.9 0
v 2.8 11.9 -0.1
v 2.8 12.2 0
v 2.8 12.2 -0.1
v -2.6 7.9 0.2
v -2.6 8 0.2
v -2.6 8.1 0.2
v -2.6 8.2 0.2
v -1.6 7.9 0.2
v -1.6 8 0.2
v -1.6 8.1 0.2
v -1.6 8.2 0.2
v -2.8 6.4 0.1
v -2.8 7 0.1
v -2.6 8 0.1
v -2.6 8.1 0.1
v -2.6 8.2 0.1
v -2.6 9 0.1
v -2.5 8.3 0.1
v -2.5 8.9 0.1
v -2.1 8.3 0.1
v -2.1 8.9 0.1
v -2 8.3 0.1
v -2 8.9 0.1
v -1.7 8.3 0.1
v -1.7 8.9 0.1
v -1.6 8 0.1
v -1.6 8.1 0.1
v -1.6 8.2 0.1
v -1.6 9 0.1
v 2.5 6.4 0.1
v 2.5 7 0.1
v -2.9 0.9 0
v -2.9 12.4 0
v -2.9 12.8 0
v -2.8 6.4 0
v -2.8 7 0
v -2.6 7.9 0
v -2.6 9 0
v -2.5 8.3 0
v -2.5 8.4 0
v -2.5 8.5 0
v -2.5 8.6 0
v -2.5 8.8 0
v -2.5 8.9 0
v -2.4 8.3 0
v -2.4 8.4 0
v -2.4 8.5 0
v -2.4 8.6 0
v -2.4 8.7 0
v -2.4 8.8 0
v -2.3 8.4 0
v -2.3 8.5 0
v -2.3 8.6 0
v -2.3 8.7 0
v -2.3 8.8 0
v -2.3 8.9 0
v -2.2 8.3 0
v -2.2 8.4 0
v -2.2 8.5 0
v -2.2 8.6 0
v -2.2 8.7 0
v -2.2 8.8 0
v -2.2 8.9 0
v -2.1 8.3 0
v -2.1 8.4 0
v -2.1 8.5 0
v -2.1 8.8 0
v -2.1 8.9 0
v -1.6 7.9 0
v -1.6 9 0
v 2.4 0.9 0
v 2.4 6.4 0
v 2.4 7 0
v 2.4 12.4 0
v 2.5 6.4 0
v 2.5 7 0
v 2.7 0.9 0
v 2.7 1.3 0
v 2.7 1.6 0
v 2.7 2 0
v 2.7 2.3 0
v 2.7 11.2 0
v 2.7 11.5 0
v 2.7 11.9 0
v 2.7 12.2 0
v 2.7 12.8 0
v 2.8 1.3 0
v 2.8 1.6 0
v 2.8 2 0
v 2.8 2.3 0
v 2.8 11.2 0
v 2.8 11.5 0
v 2.8 11.9 0
v 2.8 12.2 0
v -2.9 0.9 -0.1
v -2.9 12.4 -0.1
v -2.9 12.8 -0.1
v -2.8 6.4 -0.1
v -2.8 7 -0.1
v -2.6 7.9 -0.1
v -2.6 9 -0.1
v -2.5 8.3 -0.1
v -2.5 8.4 -0.1
v -2.5 8.5 -0.1
v -2.5 8.6 -0.1
v -2.5 8.8 -0.1
v -2.5 8.9 -0.1
v -2.4 8.3 -0.1
v -2.4 8.4 -0.1
v -2.4 8.5 -0.1
v -2.4 8.6 -0.1
v -2.4 8.7 -0.1
v -2.4 8.8 -0.1
v -2.3 8.4 -0.1
v -2.3 8.5 -0.1
v -2.3 8.6 -0.1
v -2.3 8.7 -0.1
v -2.3 8.8 -0.1
v -2.3 8.9 -0.1
v -2.2 8.3 -0.1
v -2.2 8.4 -0.1
v -2.2 8.5 -0.1
v -2.2 8.6 -0.1
v -2.2 8.7 -0.1
v -2.2 8.8 -0.1
v -2.2 8.9 -0.1
v -2.1 8.3 -0.1
v -2.1 8.4 -0.1
v -2.1 8.5 -0.1
v -2.1 8.8 -0.1
v -2.1 8.9 -0.1
v -1.6 7.9 -0.1
v -1.6 9 -0.1
v 2.4 0.9 -0.1
v 2.4 6.4 -0.1
v 2.4 7 -0.1
v 2.4 12.4 -0.1
v 2.5 6.4 -0.1
v 2.5 7 -0.1
v 2.7 0.9 -0.1
v 2.7 1.3 -0.1
v 2.7 1.6 -0.1
v 2.7 2 -0.1
v 2.7 2.3 -0.1
v 2.7 11.2 -0.1
v 2.7 11.5 -0.1
v 2.7 11.9 -0.1
v 2.7 12.2 -0.1
v 2.7 12.8 -0.1
v 2.8 1.3 -0.1
v 2.8 1.6 -0.1
v 2.8 2 -0.1
v 2.8 2.3 -0.1
v 2.8 11.2 -0.1
v 2.8 11.5 -0.1
v 2.8 11.9 -0.1
v 2.8 12.2 -0.1
v -2.8 6.4 -0.2
v -2.8 7 -0.2
v -2.6 8 -0.2
v -2.6 8.1 -0.2
v -2.6 8.2 -0.2
v -2.6 9 -0.2
v -2.5 8.3 -0.2
v -2.5 8.9 -0.2
v -2.1 8.3 -0.2
v -2.1 8.9 -0.2
v -2 8.3 -0.2
v -2 8.9 -0.2
v -1.7 8.3 -0.2
v -1.7 8.9 -0.2
v -1.6 8 -0.2
v -1.6 8.1 -0.2
v -1.6 8.2 -0.2
v -1.6 9 -0.2
v 2.5 6.4 -0.2
v 2.5 7 -0.2
v -2.6 7.9 -0.3
v -2.6 8 -0.3
v -2.6 8.1 -0.3
v -2.6 8.2 -0.3
v -1.6 7.9 -0.3
v -1.6 8 -0.3
v -1.6 8.1 -0.3
v -1.6 8.2 -0.3
v -2.9 0.9 0
v 2.4 0.9 0
v 2.7 0.9 0
v -2.9 0.9 -0.1
v 2.4 0.9 -0.1
v 2.7 0.9 -0.1
v 2.7 1.3 0
v 2.8 1.3 0
v 2.7 1.3 -0.1
v 2.8 1.3 -0.1
v 2.7 2 0
v 2.8 2 0
v 2.7 2 -0.1
v 2.8 2 -0.1
v -2.8 6.4 0.1
v 2.5 6.4 0.1
v -2.8 6.4 0
v 2.4 6.4 0
v 2.5 6.4 0
v -2.8 6.4 -0.1
v 2.4 6.4 -0.1
v 2.5 6.4 -0.1
v -2.8 6.4 -0.2
v 2.5 6.4 -0.2
v -2.6 7.9 0.2
v -1.6 7.9 0.2
v -2.6 7.9 0
v -1.6 7.9 0
v -2.6 7.9 -0.1
v -1.6 7.9 -0.1
v -2.6 7.9 -0.3
v -1.6 7.9 -0.3
v -2.6 8.1 0.2
v -1.6 8.1 0.2
v -2.6 8.1 0.1
v -1.6 8.1 0.1
v -2.6 8.1 -0.2
v -1.6 8.1 -0.2
v -2.6 8.1 -0.3
v -1.6 8.1 -0.3
v -2.5 8.9 0.1
v -2.1 8.9 0.1
v -2.5 8.9 0
v -2.3 8.9 0
v -2.2 8.9 0
v -2.1 8.9 0
v -2.5 8.9 -0.1
v -2.3 8.9 -0.1
v -2.2 8.9 -0.1
v -2.1 8.9 -0.1
v -2.5 8.9 -0.2
v -2.1 8.9 -0.2
v 2.7 11.2 0
v 2.8 11.2 0
v 2.7 11.2 -0.1
v 2.8 11.2 -0.1
v 2.7 11.9 0
v 2.8 11.9 0
v 2.7 11.9 -0.1
v 2.8 11.9 -0.1
v 2.7 1.6 0
v 2.8 1.6 0
v 2.7 1.6 -0.1
v 2.8 1.6 -0.1
v 2.7 2.3 0
v 2.8 2.3 0
v 2.7 2.3 -0.1
v 2.8 2.3 -0.1
v -2.8 7 0.1
v 2.5 7 0.1
v -2.8 7 0
v 2.4 7 0
v 2.5 7 0
v -2.8 7 -0.1
v 2.4 7 -0.1
v 2.5 7 -0.1
v -2.8 7 -0.2
v 2.5 7 -0.2
v -2.6 8 0.2
v -1.6 8 0.2
v -2.6 8 0.1
v -1.6 8 0.1
v -2.6 8 -0.2
v -1.6 8 -0.2
v -2.6 8 -0.3
v -1.6 8 -0.3
v -2.6 8.2 0.2
v -1.6 8.2 0.2
v -2.6 8.2 0.1
v -1.6 8.2 0.1
v -2.6 8.2 -0.2
v -1.6 8.2 -0.2
v -2.6 8.2 -0.3
v -1.6 8.2 -0.3
v -2.5 8.3 0.1
v -2.1 8.3 0.1
v -2.5 8.3 0
v -2.4 8.3 0
v -2.2 8.3 0
v -2.1 8.3 0
v -2.5 8.3 -0.1
v -2.4 8.3 -0.1
v -2.2 8.3 -0.1
v -2.1 8.3 -0.1
v -2.5 8.3 -0.2
v -2.1 8.3 -0.2
v -2.6 9 0.1
v -1.6 9 0.1
v -2.6 9 0
v -1.6 9 0
v -2.6 9 -0.1
v -1.6 9 -0.1
v -2.6 9 -0.2
v -1.6 9 -0.2
v 2.7 11.5 0
v 2.8 11.5 0
v 2.7 11.5 -0.1
v 2.8 11.5 -0.1
v 2.7 12.2 0
v 2.8 12.2 0
v 2.7 12.2 -0.1
v 2.8 12.2 -0.1
v -2.9 12.8 0
v 2.7 12.8 0
v -2.9 12.8 -0.1
v 2.7 12.8 -0.1

# faces
f 3/1/1 2/1/1 1/1/1
f 4/1/1 2/1/1 3/1/1
f 5/2/1 4/2/1 3/2/1
f 6/2/1 4/2/1 5/2/1
f 11/3/1 8/3/1 7/3/1
f 12/3/1 8/3/1 11/3/1
f 13/3/1 10/3/1 9/3/1
f 14/3/1 10/3/1 13/3/1
f 19/4/1 16/4/1 15/4/1
f 20/4/1 16/4/1 19/4/1
f 21/4/1 18/4/1 17/4/1
f 22/4/1 18/4/1 21/4/1
f 24/4/1 16/4/1 20/4/1
f 25/4/1 21/4/1 17/4/1
f 27/4/1 24/4/1 23/4/1
f 28/4/1 16/4/1 24/4/1
f 28/4/1 24/4/1 27/4/1
f 29/4/1 26/4/1 25/4/1
f 29/4/1 25/4/1 17/4/1
f 30/4/1 26/4/1 29/4/1
f 31/4/1 16/4/1 28/4/1
f 32/4/1 16/4/1 31/4/1
f 33/4/1 29/4/1 17/4/1
f 34/4/1 29/4/1 33/4/1
f 39/4/1 36/4/1 35/4/1
f 40/4/1 38/4/1 37/4/1
f 41/4/1 39/4/1 35/4/1
f 42/4/1 38/4/1 40/4/1
f 43/4/1 41/4/1 35/4/1
f 44/4/1 38/4/1 42/4/1
f 45/4/1 43/4/1 35/4/1
f 46/4/1 43/4/1 45/4/1
f 47/4/1 38/4/1 44/4/1
f 48/4/1 38/4/1 47/4/1
f 49/4/2 50/4/2 53/4/2
f 51/4/2 52/4/2 54/4/2
f 49/4/2 53/4/2 55/4/2
f 54/4/2 52/4/2 56/4/2
f 49/4/2 55/4/2 57/4/2
f 56/4/2 52/4/2 58/4/2
f 49/4/2 57/4/2 59/4/2
f 58/4/2 52/4/2 60/4/2
f 49/4/2 59/4/2 61/4/2
f 61/4/2 59/4/2 62/4/2
f 60/4/2 52/4/2 63/4/2
f 63/4/2 52/4/2 64/4/2
f 65/4/2 66/4/2 69/4/2
f 69/4/2 66/4/2 70/4/2
f 67/4/2 68/4/2 71/4/2
f 71/4/2 68/4/2 72/4/2
f 70/4/2 66/4/2 74/4/2
f 67/4/2 71/4/2 75/4/2
f 73/4/2 74/4/2 77/4/2
f 74/4/2 66/4/2 78/4/2
f 77/4/2 74/4/2 78/4/2
f 75/4/2 76/4/2 79/4/2
f 67/4/2 75/4/2 79/4/2
f 79/4/2 76/4/2 80/4/2
f 78/4/2 66/4/2 81/4/2
f 81/4/2 66/4/2 82/4/2
f 67/4/2 79/4/2 83/4/2
f 83/4/2 79/4/2 84/4/2
f 85/3/2 86/3/2 89/3/2
f 89/3/2 86/3/2 90/3/2
f 87/3/2 88/3/2 91/3/2
f 91/3/2 88/3/2 92/3/2
f 93/2/2 94/2/2 95/2/2
f 95/2/2 94/2/2 96/2/2
f 97/2/2 98/2/2 99/2/2
f 99/2/2 98/2/2 100/2/2
f 101/2/2 102/2/2 103/2/2
f 103/2/2 102/2/2 104/2/2
f 105/2/2 106/2/2 107/2/2
f 107/2/2 106/2/2 108/2/2
f 109/2/2 110/2/2 111/2/2
f 111/2/2 110/2/2 112/2/2
f 113/2/2 114/2/2 115/2/2
f 115/2/2 114/2/2 116/2/2
f 117/2/2 118/2/2 119/2/2
f 119/2/2 118/2/2 120/2/2
f 121/2/2 122/2/2 123/2/2
f 123/2/2 122/2/2 124/2/2
f 125/2/2 126/2/2 127/2/2
f 127/2/2 126/2/2 128/2/2
f 133/4/3 130/4/3 129/4/3
f 134/4/3 130/4/3 133/4/3
f 135/4/3 132/4/3 131/4/3
f 136/4/3 132/4/3 135/4/3
f 143/4/3 142/4/3 141/4/3
f 144/4/3 142/4/3 143/4/3
f 145/4/3 143/4/3 141/4/3
f 146/4/3 142/4/3 144/4/3
f 147/4/3 145/4/3 141/4/3
f 147/4/3 146/4/3 145/4/3
f 148/4/3 142/4/3 146/4/3
f 148/4/3 146/4/3 147/4/3
f 149/4/3 147/4/3 141/4/3
f 149/8/3 148/8/3 147/8/3
f 150/4/3 142/4/3 148/4/3
f 150/8/3 148/8/3 149/8/3
f 151/4/3 140/4/3 139/4/3
f 152/4/3 140/4/3 151/4/3
f 153/4/3 149/4/3 141/4/3
f 153/4/3 150/4/3 149/4/3
f 154/4/3 142/4/3 150/4/3
f 154/4/3 150/4/3 153/4/3
f 155/3/3 138/3/3 137/3/3
f 156/3/3 138/3/3 155/3/3
f 160/1/3 158/1/3 157/1/3
f 161/1/3 158/1/3 160/1/3
f 162/1/3 158/1/3 161/1/3
f 163/1/3 158/1/3 162/1/3
f 170/7/3 165/7/3 164/7/3
f 171/5/3 166/5/3 165/5/3
f 171/7/3 165/7/3 170/7/3
f 172/6/3 167/6/3 166/6/3
f 172/5/3 166/5/3 171/5/3
f 173/5/3 168/5/3 167/5/3
f 173/6/3 167/6/3 172/6/3
f 174/5/3 168/5/3 173/5/3
f 175/6/3 169/6/3 168/6/3
f 175/5/3 168/5/3 174/5/3
f 176/6/3 171/6/3 170/6/3
f 176/7/3 172/7/3 171/7/3
f 177/5/3 173/5/3 172/5/3
f 177/7/3 172/7/3 176/7/3
f 178/6/3 174/6/3 173/6/3
f 178/5/3 173/5/3 177/5/3
f 179/7/3 175/7/3 174/7/3
f 179/6/3 174/6/3 178/6/3
f 180/6/3 169/6/3 175/6/3
f 180/7/3 175/7/3 179/7/3
f 181/6/3 169/6/3 180/6/3
f 182/6/3 176/6/3 170/6/3
f 183/5/3 177/5/3 176/5/3
f 183/6/3 176/6/3 182/6/3
f 184/6/3 178/6/3 177/6/3
f 184/5/3 177/5/3 183/5/3
f 185/7/3 179/7/3 178/7/3
f 185/6/3 178/6/3 184/6/3
f 186/6/3 180/6/3 179/6/3
f 186/7/3 179/7/3 185/7/3
f 187/5/3 181/5/3 180/5/3
f 187/6/3 180/6/3 186/6/3
f 188/5/3 181/5/3 187/5/3
f 189/7/3 183/7/3 182/7/3
f 190/6/3 184/6/3 183/6/3
f 190/7/3 183/7/3 189/7/3
f 191/5/3 185/5/3 184/5/3
f 191/6/3 184/6/3 190/6/3
f 191/5/3 186/5/3 185/5/3
f 191/5/3 187/5/3 186/5/3
f 192/7/3 188/7/3 187/7/3
f 192/5/3 187/5/3 191/5/3
f 193/7/3 188/7/3 192/7/3
f 194/1/3 162/1/3 161/1/3
f 195/1/3 158/1/3 163/1/3
f 196/1/3 160/1/3 157/1/3
f 197/1/3 160/1/3 196/1/3
f 198/1/3 195/1/3 194/1/3
f 198/1/3 194/1/3 161/1/3
f 199/2/3 159/2/3 158/2/3
f 199/1/3 195/1/3 198/1/3
f 199/1/3 158/1/3 195/1/3
f 200/2/3 197/2/3 196/2/3
f 201/2/3 199/2/3 198/2/3
f 202/2/3 200/2/3 196/2/3
f 202/2/3 201/2/3 200/2/3
f 203/2/3 201/2/3 202/2/3
f 204/2/3 201/2/3 203/2/3
f 205/2/3 201/2/3 204/2/3
f 206/2/3 201/2/3 205/2/3
f 207/2/3 199/2/3 201/2/3
f 207/2/3 201/2/3 206/2/3
f 208/2/3 199/2/3 207/2/3
f 209/2/3 199/2/3 208/2/3
f 210/2/3 199/2/3 209/2/3
f 211/2/3 159/2/3 199/2/3
f 211/2/3 199/2/3 210/2/3
f 212/2/3 204/2/3 203/2/3
f 213/2/3 204/2/3 212/2/3
f 214/2/3 206/2/3 205/2/3
f 215/2/3 206/2/3 214/2/3
f 216/2/3 208/2/3 207/2/3
f 217/2/3 208/2/3 216/2/3
f 218/2/3 210/2/3 209/2/3
f 219/2/3 210/2/3 218/2/3
f 220/1/4 221/1/4 223/1/4
f 223/1/4 221/1/4 224/1/4
f 224/1/4 221/1/4 225/1/4
f 225/1/4 221/1/4 226/1/4
f 227/7/4 228/7/4 233/7/4
f 228/5/4 229/5/4 234/5/4
f 233/7/4 228/7/4 234/7/4
f 229/6/4 230/6/4 235/6/4
f 234/5/4 229/5/4 235/5/4
f 230/5/4 231/5/4 236/5/4
f 235/6/4 230/6/4 236/6/4
f 236/5/4 231/5/4 237/5/4
f 231/6/4 232/6/4 238/6/4
f 237/5/4 231/5/4 238/5/4
f 233/6/4 234/6/4 239/6/4
f 234/7/4 235/7/4 239/7/4
f 235/5/4 236/5/4 240/5/4
f 239/7/4 235/7/4 240/7/4
f 236/6/4 237/6/4 241/6/4
f 240/5/4 236/5/4 241/5/4
f 237/7/4 238/7/4 242/7/4
f 241/6/4 237/6/4 242/6/4
f 238/6/4 232/6/4 243/6/4
f 242/7/4 238/7/4 243/7/4
f 243/6/4 232/6/4 244/6/4
f 233/6/4 239/6/4 245/6/4
f 239/5/4 240/5/4 246/5/4
f 245/6/4 239/6/4 246/6/4
f 240/6/4 241/6/4 247/6/4
f 246/5/4 240/5/4 247/5/4
f 241/7/4 242/7/4 248/7/4
f 247/6/4 241/6/4 248/6/4
f 242/6/4 243/6/4 249/6/4
f 248/7/4 242/7/4 249/7/4
f 243/5/4 244/5/4 250/5/4
f 249/6/4 243/6/4 250/6/4
f 250/5/4 244/5/4 251/5/4
f 245/7/4 246/7/4 252/7/4
f 246/6/4 247/6/4 253/6/4
f 252/7/4 246/7/4 253/7/4
f 247/5/4 248/5/4 254/5/4
f 253/6/4 247/6/4 254/6/4
f 248/5/4 249/5/4 254/5/4
f 249/5/4 250/5/4 254/5/4
f 250/7/4 251/7/4 255/7/4
f 254/5/4 250/5/4 255/5/4
f 255/7/4 251/7/4 256/7/4
f 224/1/4 225/1/4 257/1/4
f 226/1/4 221/1/4 258/1/4
f 220/1/4 223/1/4 259/1/4
f 259/1/4 223/1/4 260/1/4
f 257/1/4 258/1/4 261/1/4
f 224/1/4 257/1/4 261/1/4
f 221/2/4 222/2/4 262/2/4
f 261/1/4 258/1/4 262/1/4
f 258/1/4 221/1/4 262/1/4
f 259/2/4 260/2/4 263/2/4
f 261/2/4 262/2/4 264/2/4
f 259/2/4 263/2/4 265/2/4
f 263/2/4 264/2/4 265/2/4
f 265/2/4 264/2/4 266/2/4
f 266/2/4 264/2/4 267/2/4
f 267/2/4 264/2/4 268/2/4
f 268/2/4 264/2/4 269/2/4
f 264/2/4 262/2/4 270/2/4
f 269/2/4 264/2/4 270/2/4
f 270/2/4 262/2/4 271/2/4
f 271/2/4 262/2/4 272/2/4
f 272/2/4 262/2/4 273/2/4
f 262/2/4 222/2/4 274/2/4
f 273/2/4 262/2/4 274/2/4
f 266/2/4 267/2/4 275/2/4
f 275/2/4 267/2/4 276/2/4
f 268/2/4 269/2/4 277/2/4
f 277/2/4 269/2/4 278/2/4
f 270/2/4 271/2/4 279/2/4
f 279/2/4 271/2/4 280/2/4
f 272/2/4 273/2/4 281/2/4
f 281/2/4 273/2/4 282/2/4
f 287/4/4 288/4/4 289/4/4
f 289/4/4 288/4/4 290/4/4
f 287/4/4 289/4/4 291/4/4
f 290/4/4 288/4/4 292/4/4
f 287/4/4 291/4/4 293/4/4
f 291/4/4 292/4/4 293/4/4
f 292/4/4 288/4/4 294/4/4
f 293/4/4 292/4/4 294/4/4
f 287/4/4 293/4/4 295/4/4
f 293/8/4 294/8/4 295/8/4
f 294/4/4 288/4/4 296/4/4
f 295/8/4 294/8/4 296/8/4
f 285/4/4 286/4/4 297/4/4
f 297/4/4 286/4/4 298/4/4
f 287/4/4 295/4/4 299/4/4
f 295/4/4 296/4/4 299/4/4
f 296/4/4 288/4/4 300/4/4
f 299/4/4 296/4/4 300/4/4
f 283/3/4 284/3/4 301/3/4
f 301/3/4 284/3/4 302/3/4
f 303/4/4 304/4/4 307/4/4
f 307/4/4 304/4/4 308/4/4
f 305/4/4 306/4/4 309/4/4
f 309/4/4 306/4/4 310/4/4
f 314/1/5 312/1/5 311/1/5
f 315/2/5 313/2/5 312/2/5
f 315/1/5 312/1/5 314/1/5
f 316/2/5 313/2/5 315/2/5
f 319/2/5 318/2/5 317/2/5
f 320/2/5 318/2/5 319/2/5
f 323/2/5 322/2/5 321/2/5
f 324/2/5 322/2/5 323/2/5
f 327/3/5 326/3/5 325/3/5
f 328/3/5 326/3/5 327/3/5
f 329/3/5 326/3/5 328/3/5
f 333/3/5 331/3/5 330/3/5
f 333/3/5 332/3/5 331/3/5
f 334/3/5 332/3/5 333/3/5
f 337/4/5 336/4/5 335/4/5
f 338/4/5 336/4/5 337/4/5
f 341/4/5 340/4/5 339/4/5
f 342/4/5 340/4/5 341/4/5
f 345/4/5 344/4/5 343/4/5
f 346/4/5 344/4/5 345/4/5
f 349/4/5 348/4/5 347/4/5
f 350/4/5 348/4/5 349/4/5
f 353/4/5 352/4/5 351/4/5
f 354/4/5 352/4/5 353/4/5
f 355/4/5 352/4/5 354/4/5
f 356/4/5 352/4/5 355/4/5
f 361/4/5 358/4/5 357/4/5
f 361/4/5 360/4/5 359/4/5
f 361/4/5 359/4/5 358/4/5
f 362/4/5 360/4/5 361/4/5
f 365/2/5 364/2/5 363/2/5
f 366/2/5 364/2/5 365/2/5
f 369/2/5 368/2/5 367/2/5
f 370/2/5 368/2/5 369/2/5
f 371/2/6 372/2/6 373/2/6
f 373/2/6 372/2/6 374/2/6
f 375/2/6 376/2/6 377/2/6
f 377/2/6 376/2/6 378/2/6
f 379/3/6 380/3/6 381/3/6
f 381/3/6 380/3/6 382/3/6
f 382/3/6 380/3/6 383/3/6
f 384/3/6 385/3/6 387/3/6
f 385/3/6 386/3/6 387/3/6
f 387/3/6 386/3/6 388/3/6
f 389/4/6 390/4/6 391/4/6
f 391/4/6 390/4/6 392/4/6
f 393/4/6 394/4/6 395/4/6
f 395/4/6 394/4/6 396/4/6
f 397/4/6 398/4/6 399/4/6
f 399/4/6 398/4/6 400/4/6
f 401/4/6 402/4/6 403/4/6
f 403/4/6 402/4/6 404/4/6
f 405/4/6 406/4/6 407/4/6
f 407/4/6 406/4/6 408/4/6
f 408/4/6 406/4/6 409/4/6
f 409/4/6 406/4/6 410/4/6
f 411/4/6 412/4/6 415/4/6
f 413/4/6 414/4/6 415/4/6
f 412/4/6 413/4/6 415/4/6
f 415/4/6 414/4/6 416/4/6
f 417/4/6 418/4/6 419/4/6
f 419/4/6 418/4/6 420/4/6
f 421/4/6 422/4/6 423/4/6
f 423/4/6 422/4/6 424/4/6
f 425/2/6 426/2/6 427/2/6
f 427/2/6 426/2/6 428/2/6
f 429/2/6 430/2/6 431/2/6
f 431/2/6 430/2/6 432/2/6
f 433/2/6 434/2/6 435/2/6
f 435/2/6 434/2/6 436/2/6
