# MagicaVoxel @ Ephtracy

# group
o Wooden Door Frame

# material
mtllib WoodDoor-0-Wooden Door Frame.mtl
usemtl palette

# normals
vn -1 0 0
vn 1 0 0
vn 0 0 1
vn 0 0 -1
vn 0 -1 0
vn 0 1 0

# texcoords
vt 0.919922 0.5
vt 0.923828 0.5

# verts
v -13.6 0 0.5
v -13.6 0 -0.5
v -13.6 12 0.5
v -13.6 12 -0.5
v -7.9 0 0.5
v -7.9 0 -0.5
v -7.9 0.1 0.5
v -7.9 0.1 0.3
v -7.9 0.1 -0.3
v -7.9 0.1 -0.5
v -7.9 0.4 0.3
v -7.9 0.4 -0.3
v -7.9 0.7 0.3
v -7.9 0.7 -0.3
v -7.9 1.1 0.3
v -7.9 1.1 -0.3
v -7.9 1.4 0.3
v -7.9 1.4 -0.3
v -7.9 10.3 0.3
v -7.9 10.3 -0.3
v -7.9 10.6 0.3
v -7.9 10.6 -0.3
v -7.9 11 0.3
v -7.9 11 -0.3
v -7.9 11.3 0.3
v -7.9 11.3 -0.3
v -7.9 11.9 0.3
v -7.9 11.9 -0.3
v -7.8 0.1 0.4
v -7.8 0.1 0.3
v -7.8 0.1 -0.3
v -7.8 0.1 -0.4
v -7.8 0.4 0.4
v -7.8 0.4 0.3
v -7.8 0.4 0
v -7.8 0.4 -0.1
v -7.8 0.4 -0.3
v -7.8 0.4 -0.4
v -7.8 0.7 0.4
v -7.8 0.7 0.3
v -7.8 0.7 0
v -7.8 0.7 -0.1
v -7.8 0.7 -0.3
v -7.8 0.7 -0.4
v -7.8 1.1 0.4
v -7.8 1.1 0.3
v -7.8 1.1 0
v -7.8 1.1 -0.1
v -7.8 1.1 -0.3
v -7.8 1.1 -0.4
v -7.8 1.4 0.4
v -7.8 1.4 0.3
v -7.8 1.4 0
v -7.8 1.4 -0.1
v -7.8 1.4 -0.3
v -7.8 1.4 -0.4
v -7.8 10.3 0.4
v -7.8 10.3 0.3
v -7.8 10.3 0
v -7.8 10.3 -0.1
v -7.8 10.3 -0.3
v -7.8 10.3 -0.4
v -7.8 10.6 0.4
v -7.8 10.6 0.3
v -7.8 10.6 0
v -7.8 10.6 -0.1
v -7.8 10.6 -0.3
v -7.8 10.6 -0.4
v -7.8 11 0.4
v -7.8 11 0.3
v -7.8 11 0
v -7.8 11 -0.1
v -7.8 11 -0.3
v -7.8 11 -0.4
v -7.8 11.3 0.4
v -7.8 11.3 0.3
v -7.8 11.3 0
v -7.8 11.3 -0.1
v -7.8 11.3 -0.3
v -7.8 11.3 -0.4
v -7.8 11.9 0.4
v -7.8 11.9 0.3
v -7.8 11.9 -0.3
v -7.8 11.9 -0.4
v -7.7 0.1 0.5
v -7.7 0.1 0.4
v -7.7 0.1 -0.4
v -7.7 0.1 -0.5
v -7.7 0.4 0.4
v -7.7 0.4 0
v -7.7 0.4 -0.1
v -7.7 0.4 -0.4
v -7.7 0.7 0.4
v -7.7 0.7 0
v -7.7 0.7 -0.1
v -7.7 0.7 -0.4
v -7.7 1.1 0.4
v -7.7 1.1 0
v -7.7 1.1 -0.1
v -7.7 1.1 -0.4
v -7.7 1.4 0.4
v -7.7 1.4 0
v -7.7 1.4 -0.1
v -7.7 1.4 -0.4
v -7.7 10.3 0.4
v -7.7 10.3 0
v -7.7 10.3 -0.1
v -7.7 10.3 -0.4
v -7.7 10.6 0.4
v -7.7 10.6 0
v -7.7 10.6 -0.1
v -7.7 10.6 -0.4
v -7.7 11 0.4
v -7.7 11 0
v -7.7 11 -0.1
v -7.7 11 -0.4
v -7.7 11.3 0.4
v -7.7 11.3 0
v -7.7 11.3 -0.1
v -7.7 11.3 -0.4
v -7.7 11.9 0.5
v -7.7 11.9 0.4
v -7.7 11.9 -0.4
v -7.7 11.9 -0.5
v -13.5 0 0.5
v -13.5 0 -0.5
v -13.5 11.9 0.5
v -13.5 11.9 -0.5
v -7.6 0 0.5
v -7.6 0 -0.5
v -7.6 12 0.5
v -7.6 12 -0.5
v -13.6 0 0.5
v -13.6 12 0.5
v -13.5 0 0.5
v -13.5 11.9 0.5
v -7.9 0 0.5
v -7.9 0.1 0.5
v -7.7 0.1 0.5
v -7.7 11.9 0.5
v -7.6 0 0.5
v -7.6 12 0.5
v -7.8 0.1 0.4
v -7.8 0.4 0.4
v -7.8 0.7 0.4
v -7.8 1.1 0.4
v -7.8 1.4 0.4
v -7.8 10.3 0.4
v -7.8 10.6 0.4
v -7.8 11 0.4
v -7.8 11.3 0.4
v -7.8 11.9 0.4
v -7.7 0.1 0.4
v -7.7 0.4 0.4
v -7.7 0.7 0.4
v -7.7 1.1 0.4
v -7.7 1.4 0.4
v -7.7 10.3 0.4
v -7.7 10.6 0.4
v -7.7 11 0.4
v -7.7 11.3 0.4
v -7.7 11.9 0.4
v -7.9 0.1 0.3
v -7.9 0.4 0.3
v -7.9 0.7 0.3
v -7.9 1.1 0.3
v -7.9 1.4 0.3
v -7.9 10.3 0.3
v -7.9 10.6 0.3
v -7.9 11 0.3
v -7.9 11.3 0.3
v -7.9 11.9 0.3
v -7.8 0.1 0.3
v -7.8 0.4 0.3
v -7.8 0.7 0.3
v -7.8 1.1 0.3
v -7.8 1.4 0.3
v -7.8 10.3 0.3
v -7.8 10.6 0.3
v -7.8 11 0.3
v -7.8 11.3 0.3
v -7.8 11.9 0.3
v -7.8 0.4 0
v -7.8 0.7 0
v -7.8 1.1 0
v -7.8 1.4 0
v -7.8 10.3 0
v -7.8 10.6 0
v -7.8 11 0
v -7.8 11.3 0
v -7.7 0.4 0
v -7.7 0.7 0
v -7.7 1.1 0
v -7.7 1.4 0
v -7.7 10.3 0
v -7.7 10.6 0
v -7.7 11 0
v -7.7 11.3 0
v -7.8 0.4 -0.1
v -7.8 0.7 -0.1
v -7.8 1.1 -0.1
v -7.8 1.4 -0.1
v -7.8 10.3 -0.1
v -7.8 10.6 -0.1
v -7.8 11 -0.1
v -7.8 11.3 -0.1
v -7.7 0.4 -0.1
v -7.7 0.7 -0.1
v -7.7 1.1 -0.1
v -7.7 1.4 -0.1
v -7.7 10.3 -0.1
v -7.7 10.6 -0.1
v -7.7 11 -0.1
v -7.7 11.3 -0.1
v -7.9 0.1 -0.3
v -7.9 0.4 -0.3
v -7.9 0.7 -0.3
v -7.9 1.1 -0.3
v -7.9 1.4 -0.3
v -7.9 10.3 -0.3
v -7.9 10.6 -0.3
v -7.9 11 -0.3
v -7.9 11.3 -0.3
v -7.9 11.9 -0.3
v -7.8 0.1 -0.3
v -7.8 0.4 -0.3
v -7.8 0.7 -0.3
v -7.8 1.1 -0.3
v -7.8 1.4 -0.3
v -7.8 10.3 -0.3
v -7.8 10.6 -0.3
v -7.8 11 -0.3
v -7.8 11.3 -0.3
v -7.8 11.9 -0.3
v -7.8 0.1 -0.4
v -7.8 0.4 -0.4
v -7.8 0.7 -0.4
v -7.8 1.1 -0.4
v -7.8 1.4 -0.4
v -7.8 10.3 -0.4
v -7.8 10.6 -0.4
v -7.8 11 -0.4
v -7.8 11.3 -0.4
v -7.8 11.9 -0.4
v -7.7 0.1 -0.4
v -7.7 0.4 -0.4
v -7.7 0.7 -0.4
v -7.7 1.1 -0.4
v -7.7 1.4 -0.4
v -7.7 10.3 -0.4
v -7.7 10.6 -0.4
v -7.7 11 -0.4
v -7.7 11.3 -0.4
v -7.7 11.9 -0.4
v -13.6 0 -0.5
v -13.6 12 -0.5
v -13.5 0 -0.5
v -13.5 11.9 -0.5
v -7.9 0 -0.5
v -7.9 0.1 -0.5
v -7.7 0.1 -0.5
v -7.7 11.9 -0.5
v -7.6 0 -0.5
v -7.6 12 -0.5
v -13.6 0 0.5
v -13.5 0 0.5
v -7.9 0 0.5
v -7.6 0 0.5
v -13.6 0 -0.5
v -13.5 0 -0.5
v -7.9 0 -0.5
v -7.6 0 -0.5
v -7.8 0.7 0.4
v -7.7 0.7 0.4
v -7.9 0.7 0.3
v -7.8 0.7 0.3
v -7.8 0.7 0
v -7.7 0.7 0
v -7.8 0.7 -0.1
v -7.7 0.7 -0.1
v -7.9 0.7 -0.3
v -7.8 0.7 -0.3
v -7.8 0.7 -0.4
v -7.7 0.7 -0.4
v -7.8 1.4 0.4
v -7.7 1.4 0.4
v -7.9 1.4 0.3
v -7.8 1.4 0.3
v -7.8 1.4 0
v -7.7 1.4 0
v -7.8 1.4 -0.1
v -7.7 1.4 -0.1
v -7.9 1.4 -0.3
v -7.8 1.4 -0.3
v -7.8 1.4 -0.4
v -7.7 1.4 -0.4
v -7.8 10.6 0.4
v -7.7 10.6 0.4
v -7.9 10.6 0.3
v -7.8 10.6 0.3
v -7.8 10.6 0
v -7.7 10.6 0
v -7.8 10.6 -0.1
v -7.7 10.6 -0.1
v -7.9 10.6 -0.3
v -7.8 10.6 -0.3
v -7.8 10.6 -0.4
v -7.7 10.6 -0.4
v -7.8 11.3 0.4
v -7.7 11.3 0.4
v -7.9 11.3 0.3
v -7.8 11.3 0.3
v -7.8 11.3 0
v -7.7 11.3 0
v -7.8 11.3 -0.1
v -7.7 11.3 -0.1
v -7.9 11.3 -0.3
v -7.8 11.3 -0.3
v -7.8 11.3 -0.4
v -7.7 11.3 -0.4
v -13.5 11.9 0.5
v -7.7 11.9 0.5
v -7.8 11.9 0.4
v -7.7 11.9 0.4
v -7.9 11.9 0.3
v -7.8 11.9 0.3
v -7.9 11.9 -0.3
v -7.8 11.9 -0.3
v -7.8 11.9 -0.4
v -7.7 11.9 -0.4
v -13.5 11.9 -0.5
v -7.7 11.9 -0.5
v -7.9 0.1 0.5
v -7.7 0.1 0.5
v -7.8 0.1 0.4
v -7.7 0.1 0.4
v -7.9 0.1 0.3
v -7.8 0.1 0.3
v -7.9 0.1 -0.3
v -7.8 0.1 -0.3
v -7.8 0.1 -0.4
v -7.7 0.1 -0.4
v -7.9 0.1 -0.5
v -7.7 0.1 -0.5
v -7.8 0.4 0.4
v -7.7 0.4 0.4
v -7.9 0.4 0.3
v -7.8 0.4 0.3
v -7.8 0.4 0
v -7.7 0.4 0
v -7.8 0.4 -0.1
v -7.7 0.4 -0.1
v -7.9 0.4 -0.3
v -7.8 0.4 -0.3
v -7.8 0.4 -0.4
v -7.7 0.4 -0.4
v -7.8 1.1 0.4
v -7.7 1.1 0.4
v -7.9 1.1 0.3
v -7.8 1.1 0.3
v -7.8 1.1 0
v -7.7 1.1 0
v -7.8 1.1 -0.1
v -7.7 1.1 -0.1
v -7.9 1.1 -0.3
v -7.8 1.1 -0.3
v -7.8 1.1 -0.4
v -7.7 1.1 -0.4
v -7.8 10.3 0.4
v -7.7 10.3 0.4
v -7.9 10.3 0.3
v -7.8 10.3 0.3
v -7.8 10.3 0
v -7.7 10.3 0
v -7.8 10.3 -0.1
v -7.7 10.3 -0.1
v -7.9 10.3 -0.3
v -7.8 10.3 -0.3
v -7.8 10.3 -0.4
v -7.7 10.3 -0.4
v -7.8 11 0.4
v -7.7 11 0.4
v -7.9 11 0.3
v -7.8 11 0.3
v -7.8 11 0
v -7.7 11 0
v -7.8 11 -0.1
v -7.7 11 -0.1
v -7.9 11 -0.3
v -7.8 11 -0.3
v -7.8 11 -0.4
v -7.7 11 -0.4
v -13.6 12 0.5
v -7.6 12 0.5
v -13.6 12 -0.5
v -7.6 12 -0.5

# faces
f 3/1/1 2/1/1 1/1/1
f 4/1/1 2/1/1 3/1/1
f 7/1/1 6/1/1 5/1/1
f 8/1/1 6/1/1 7/1/1
f 9/1/1 6/1/1 8/1/1
f 10/1/1 6/1/1 9/1/1
f 11/1/1 9/1/1 8/1/1
f 12/1/1 9/1/1 11/1/1
f 15/1/1 14/1/1 13/1/1
f 16/1/1 14/1/1 15/1/1
f 19/1/1 18/1/1 17/1/1
f 20/1/1 18/1/1 19/1/1
f 23/1/1 22/1/1 21/1/1
f 24/1/1 22/1/1 23/1/1
f 27/1/1 26/1/1 25/1/1
f 28/1/1 26/1/1 27/1/1
f 33/1/1 30/1/1 29/1/1
f 34/1/1 30/1/1 33/1/1
f 37/1/1 32/1/1 31/1/1
f 38/1/1 32/1/1 37/1/1
f 41/2/1 36/2/1 35/2/1
f 42/2/1 36/2/1 41/2/1
f 45/1/1 40/1/1 39/1/1
f 46/1/1 40/1/1 45/1/1
f 49/1/1 44/1/1 43/1/1
f 50/1/1 44/1/1 49/1/1
f 53/2/1 48/2/1 47/2/1
f 54/2/1 48/2/1 53/2/1
f 57/1/1 52/1/1 51/1/1
f 58/1/1 52/1/1 57/1/1
f 61/1/1 56/1/1 55/1/1
f 62/1/1 56/1/1 61/1/1
f 65/2/1 60/2/1 59/2/1
f 66/2/1 60/2/1 65/2/1
f 69/1/1 64/1/1 63/1/1
f 70/1/1 64/1/1 69/1/1
f 73/1/1 68/1/1 67/1/1
f 74/1/1 68/1/1 73/1/1
f 77/2/1 72/2/1 71/2/1
f 78/2/1 72/2/1 77/2/1
f 81/1/1 76/1/1 75/1/1
f 82/1/1 76/1/1 81/1/1
f 83/1/1 80/1/1 79/1/1
f 84/1/1 80/1/1 83/1/1
f 89/1/1 86/1/1 85/1/1
f 92/1/1 88/1/1 87/1/1
f 93/1/1 90/1/1 89/1/1
f 93/1/1 89/1/1 85/1/1
f 94/1/1 90/1/1 93/1/1
f 95/1/1 92/1/1 91/1/1
f 96/1/1 88/1/1 92/1/1
f 96/1/1 92/1/1 95/1/1
f 97/1/1 93/1/1 85/1/1
f 100/1/1 88/1/1 96/1/1
f 101/1/1 98/1/1 97/1/1
f 101/1/1 97/1/1 85/1/1
f 102/1/1 98/1/1 101/1/1
f 103/1/1 100/1/1 99/1/1
f 104/1/1 88/1/1 100/1/1
f 104/1/1 100/1/1 103/1/1
f 105/1/1 101/1/1 85/1/1
f 108/1/1 88/1/1 104/1/1
f 109/1/1 106/1/1 105/1/1
f 109/1/1 105/1/1 85/1/1
f 110/1/1 106/1/1 109/1/1
f 111/1/1 108/1/1 107/1/1
f 112/1/1 88/1/1 108/1/1
f 112/1/1 108/1/1 111/1/1
f 113/1/1 109/1/1 85/1/1
f 116/1/1 88/1/1 112/1/1
f 117/1/1 114/1/1 113/1/1
f 117/1/1 113/1/1 85/1/1
f 118/1/1 114/1/1 117/1/1
f 119/1/1 116/1/1 115/1/1
f 120/1/1 88/1/1 116/1/1
f 120/1/1 116/1/1 119/1/1
f 121/1/1 117/1/1 85/1/1
f 122/1/1 117/1/1 121/1/1
f 123/1/1 88/1/1 120/1/1
f 124/1/1 88/1/1 123/1/1
f 125/1/2 126/1/2 127/1/2
f 127/1/2 126/1/2 128/1/2
f 129/1/2 130/1/2 131/1/2
f 131/1/2 130/1/2 132/1/2
f 135/1/3 134/1/3 133/1/3
f 136/1/3 134/1/3 135/1/3
f 139/1/3 138/1/3 137/1/3
f 140/1/3 134/1/3 136/1/3
f 141/1/3 139/1/3 137/1/3
f 141/1/3 140/1/3 139/1/3
f 142/1/3 134/1/3 140/1/3
f 142/1/3 140/1/3 141/1/3
f 153/1/3 144/1/3 143/1/3
f 154/1/3 144/1/3 153/1/3
f 155/1/3 146/1/3 145/1/3
f 156/1/3 146/1/3 155/1/3
f 157/1/3 148/1/3 147/1/3
f 158/1/3 148/1/3 157/1/3
f 159/1/3 150/1/3 149/1/3
f 160/1/3 150/1/3 159/1/3
f 161/1/3 152/1/3 151/1/3
f 162/1/3 152/1/3 161/1/3
f 173/1/3 164/1/3 163/1/3
f 174/1/3 164/1/3 173/1/3
f 175/1/3 166/1/3 165/1/3
f 176/1/3 166/1/3 175/1/3
f 177/1/3 168/1/3 167/1/3
f 178/1/3 168/1/3 177/1/3
f 179/1/3 170/1/3 169/1/3
f 180/1/3 170/1/3 179/1/3
f 181/1/3 172/1/3 171/1/3
f 182/1/3 172/1/3 181/1/3
f 191/2/3 184/2/3 183/2/3
f 192/2/3 184/2/3 191/2/3
f 193/2/3 186/2/3 185/2/3
f 194/2/3 186/2/3 193/2/3
f 195/2/3 188/2/3 187/2/3
f 196/2/3 188/2/3 195/2/3
f 197/2/3 190/2/3 189/2/3
f 198/2/3 190/2/3 197/2/3
f 199/2/4 200/2/4 207/2/4
f 207/2/4 200/2/4 208/2/4
f 201/2/4 202/2/4 209/2/4
f 209/2/4 202/2/4 210/2/4
f 203/2/4 204/2/4 211/2/4
f 211/2/4 204/2/4 212/2/4
f 205/2/4 206/2/4 213/2/4
f 213/2/4 206/2/4 214/2/4
f 215/1/4 216/1/4 225/1/4
f 225/1/4 216/1/4 226/1/4
f 217/1/4 218/1/4 227/1/4
f 227/1/4 218/1/4 228/1/4
f 219/1/4 220/1/4 229/1/4
f 229/1/4 220/1/4 230/1/4
f 221/1/4 222/1/4 231/1/4
f 231/1/4 222/1/4 232/1/4
f 223/1/4 224/1/4 233/1/4
f 233/1/4 224/1/4 234/1/4
f 235/1/4 236/1/4 245/1/4
f 245/1/4 236/1/4 246/1/4
f 237/1/4 238/1/4 247/1/4
f 247/1/4 238/1/4 248/1/4
f 239/1/4 240/1/4 249/1/4
f 249/1/4 240/1/4 250/1/4
f 241/1/4 242/1/4 251/1/4
f 251/1/4 242/1/4 252/1/4
f 243/1/4 244/1/4 253/1/4
f 253/1/4 244/1/4 254/1/4
f 255/1/4 256/1/4 257/1/4
f 257/1/4 256/1/4 258/1/4
f 259/1/4 260/1/4 261/1/4
f 258/1/4 256/1/4 262/1/4
f 259/1/4 261/1/4 263/1/4
f 261/1/4 262/1/4 263/1/4
f 262/1/4 256/1/4 264/1/4
f 263/1/4 262/1/4 264/1/4
f 269/1/5 266/1/5 265/1/5
f 270/1/5 266/1/5 269/1/5
f 271/1/5 268/1/5 267/1/5
f 272/1/5 268/1/5 271/1/5
f 276/1/5 274/1/5 273/1/5
f 277/1/5 274/1/5 276/1/5
f 277/1/5 276/1/5 275/1/5
f 278/1/5 274/1/5 277/1/5
f 279/1/5 277/1/5 275/1/5
f 281/1/5 279/1/5 275/1/5
f 281/1/5 280/1/5 279/1/5
f 282/1/5 280/1/5 281/1/5
f 283/1/5 280/1/5 282/1/5
f 284/1/5 280/1/5 283/1/5
f 288/1/5 286/1/5 285/1/5
f 289/1/5 286/1/5 288/1/5
f 289/1/5 288/1/5 287/1/5
f 290/1/5 286/1/5 289/1/5
f 291/1/5 289/1/5 287/1/5
f 293/1/5 291/1/5 287/1/5
f 293/1/5 292/1/5 291/1/5
f 294/1/5 292/1/5 293/1/5
f 295/1/5 292/1/5 294/1/5
f 296/1/5 292/1/5 295/1/5
f 300/1/5 298/1/5 297/1/5
f 301/1/5 298/1/5 300/1/5
f 301/1/5 300/1/5 299/1/5
f 302/1/5 298/1/5 301/1/5
f 303/1/5 301/1/5 299/1/5
f 305/1/5 303/1/5 299/1/5
f 305/1/5 304/1/5 303/1/5
f 306/1/5 304/1/5 305/1/5
f 307/1/5 304/1/5 306/1/5
f 308/1/5 304/1/5 307/1/5
f 312/1/5 310/1/5 309/1/5
f 313/1/5 310/1/5 312/1/5
f 313/1/5 312/1/5 311/1/5
f 314/1/5 310/1/5 313/1/5
f 315/1/5 313/1/5 311/1/5
f 317/1/5 315/1/5 311/1/5
f 317/1/5 316/1/5 315/1/5
f 318/1/5 316/1/5 317/1/5
f 319/1/5 316/1/5 318/1/5
f 320/1/5 316/1/5 319/1/5
f 323/1/5 322/1/5 321/1/5
f 324/1/5 322/1/5 323/1/5
f 325/1/5 323/1/5 321/1/5
f 326/1/5 323/1/5 325/1/5
f 327/1/5 325/1/5 321/1/5
f 329/1/5 328/1/5 327/1/5
f 331/1/5 329/1/5 327/1/5
f 331/1/5 330/1/5 329/1/5
f 331/1/5 327/1/5 321/1/5
f 332/1/5 330/1/5 331/1/5
f 333/1/6 334/1/6 335/1/6
f 335/1/6 334/1/6 336/1/6
f 333/1/6 335/1/6 337/1/6
f 337/1/6 335/1/6 338/1/6
f 339/1/6 340/1/6 341/1/6
f 339/1/6 341/1/6 343/1/6
f 341/1/6 342/1/6 343/1/6
f 343/1/6 342/1/6 344/1/6
f 345/1/6 346/1/6 348/1/6
f 348/1/6 346/1/6 349/1/6
f 347/1/6 348/1/6 349/1/6
f 349/1/6 346/1/6 350/1/6
f 347/1/6 349/1/6 351/1/6
f 347/1/6 351/1/6 353/1/6
f 351/1/6 352/1/6 353/1/6
f 353/1/6 352/1/6 354/1/6
f 354/1/6 352/1/6 355/1/6
f 355/1/6 352/1/6 356/1/6
f 357/1/6 358/1/6 360/1/6
f 360/1/6 358/1/6 361/1/6
f 359/1/6 360/1/6 361/1/6
f 361/1/6 358/1/6 362/1/6
f 359/1/6 361/1/6 363/1/6
f 359/1/6 363/1/6 365/1/6
f 363/1/6 364/1/6 365/1/6
f 365/1/6 364/1/6 366/1/6
f 366/1/6 364/1/6 367/1/6
f 367/1/6 364/1/6 368/1/6
f 369/1/6 370/1/6 372/1/6
f 372/1/6 370/1/6 373/1/6
f 371/1/6 372/1/6 373/1/6
f 373/1/6 370/1/6 374/1/6
f 371/1/6 373/1/6 375/1/6
f 371/1/6 375/1/6 377/1/6
f 375/1/6 376/1/6 377/1/6
f 377/1/6 376/1/6 378/1/6
f 378/1/6 376/1/6 379/1/6
f 379/1/6 376/1/6 380/1/6
f 381/1/6 382/1/6 384/1/6
f 384/1/6 382/1/6 385/1/6
f 383/1/6 384/1/6 385/1/6
f 385/1/6 382/1/6 386/1/6
f 383/1/6 385/1/6 387/1/6
f 383/1/6 387/1/6 389/1/6
f 387/1/6 388/1/6 389/1/6
f 389/1/6 388/1/6 390/1/6
f 390/1/6 388/1/6 391/1/6
f 391/1/6 388/1/6 392/1/6
f 393/1/6 394/1/6 395/1/6
f 395/1/6 394/1/6 396/1/6
