# MagicaVoxel @ Ephtracy

# group
o 

# material
mtllib gridMap-20.mtl
usemtl palette

# normals
vn -1 0 0
vn 1 0 0
vn 0 0 1
vn 0 0 -1
vn 0 -1 0
vn 0 1 0

# texcoords
vt 0.982422 0.5
vt 0.986328 0.5
vt 0.994141 0.5

# verts
v -100 0 100
v -100 0 80
v -100 0.1 100
v -100 0.1 80
v -80 0 100
v -80 0 98.4
v -80 0 90
v -80 0 89.8
v -80 0 89.7
v -80 0 89.6
v -80 0 89.5
v -80 0 89.2
v -80 0 80
v -80 0.1 100
v -80 0.1 98.4
v -80 0.1 90
v -80 0.1 89.8
v -80 0.1 89.7
v -80 0.1 89.6
v -80 0.1 89.5
v -80 0.1 89.2
v -80 0.1 80
v -100 0 100
v -100 0.1 100
v -80 0 100
v -80 0.1 100
v -100 0 80
v -100 0.1 80
v -98.4 0 80
v -98.4 0.1 80
v -90 0 80
v -90 0.1 80
v -89.8 0 80
v -89.8 0.1 80
v -89.4 0 80
v -89.4 0.1 80
v -89.1 0 80
v -89.1 0.1 80
v -89 0 80
v -89 0.1 80
v -88.9 0 80
v -88.9 0.1 80
v -80 0 80
v -80 0.1 80
v -100 0 100
v -80 0 100
v -98.4 0 98.4
v -90 0 98.4
v -89.8 0 98.4
v -80 0 98.4
v -89 0 95.5
v -88.8 0 95.5
v -89 0 95.4
v -88.9 0 95.4
v -89 0 95.3
v -88.9 0 95.3
v -88.9 0 95.2
v -88.8 0 95.2
v -88.9 0 95.1
v -88.8 0 95.1
v -89.8 0 95
v -89 0 95
v -88.8 0 95
v -88.4 0 95
v -89.8 0 94.9
v -88.4 0 94.9
v -89.4 0 90.5
v -89.1 0 90.5
v -89 0 90.5
v -88.9 0 90.5
v -89.3 0 90.4
v -89.2 0 90.4
v -89.3 0 90.1
v -89.2 0 90.1
v -98.4 0 90
v -90 0 90
v -89.8 0 90
v -89.4 0 90
v -89.1 0 90
v -89 0 90
v -88.9 0 90
v -80 0 90
v -98.4 0 89.8
v -95 0 89.8
v -94.9 0 89.8
v -90 0 89.8
v -89.8 0 89.8
v -85 0 89.8
v -84.9 0 89.8
v -80 0 89.8
v -95.5 0 89.7
v -95.2 0 89.7
v -95.1 0 89.7
v -95 0 89.7
v -90.5 0 89.7
v -90 0 89.7
v -85.5 0 89.7
v -85.2 0 89.7
v -85.1 0 89.7
v -85 0 89.7
v -80.5 0 89.7
v -80 0 89.7
v -95.4 0 89.6
v -95.3 0 89.6
v -95.2 0 89.6
v -95.1 0 89.6
v -90.5 0 89.6
v -90 0 89.6
v -85.4 0 89.6
v -85.3 0 89.6
v -85.2 0 89.6
v -85.1 0 89.6
v -80.5 0 89.6
v -80 0 89.6
v -95.5 0 89.5
v -95.4 0 89.5
v -95.3 0 89.5
v -95 0 89.5
v -90.5 0 89.5
v -90 0 89.5
v -85.5 0 89.5
v -85.4 0 89.5
v -85.3 0 89.5
v -85 0 89.5
v -80.5 0 89.5
v -80 0 89.5
v -90.4 0 89.4
v -90.1 0 89.4
v -80.4 0 89.4
v -80.1 0 89.4
v -90.4 0 89.3
v -90.1 0 89.3
v -80.4 0 89.3
v -80.1 0 89.3
v -90.5 0 89.2
v -90 0 89.2
v -80.5 0 89.2
v -80 0 89.2
v -95 0 88.4
v -94.9 0 88.4
v -85 0 88.4
v -84.9 0 88.4
v -89 0 85.5
v -88.8 0 85.5
v -89 0 85.4
v -88.9 0 85.4
v -89 0 85.3
v -88.9 0 85.3
v -88.9 0 85.2
v -88.8 0 85.2
v -88.9 0 85.1
v -88.8 0 85.1
v -89.8 0 85
v -89 0 85
v -88.8 0 85
v -88.4 0 85
v -89.8 0 84.9
v -88.4 0 84.9
v -89.4 0 80.5
v -89.1 0 80.5
v -89 0 80.5
v -88.9 0 80.5
v -89.3 0 80.4
v -89.2 0 80.4
v -89.3 0 80.1
v -89.2 0 80.1
v -100 0 80
v -98.4 0 80
v -90 0 80
v -89.8 0 80
v -89.4 0 80
v -89.1 0 80
v -89 0 80
v -88.9 0 80
v -80 0 80
v -100 0.1 100
v -80 0.1 100
v -98.4 0.1 98.4
v -90 0.1 98.4
v -89.8 0.1 98.4
v -80 0.1 98.4
v -89 0.1 95.5
v -88.8 0.1 95.5
v -89 0.1 95.4
v -88.9 0.1 95.4
v -89 0.1 95.3
v -88.9 0.1 95.3
v -88.9 0.1 95.2
v -88.8 0.1 95.2
v -88.9 0.1 95.1
v -88.8 0.1 95.1
v -89.8 0.1 95
v -89 0.1 95
v -88.8 0.1 95
v -88.4 0.1 95
v -89.8 0.1 94.9
v -88.4 0.1 94.9
v -89.4 0.1 90.5
v -89.1 0.1 90.5
v -89 0.1 90.5
v -88.9 0.1 90.5
v -89.3 0.1 90.4
v -89.2 0.1 90.4
v -89.3 0.1 90.1
v -89.2 0.1 90.1
v -98.4 0.1 90
v -90 0.1 90
v -89.8 0.1 90
v -89.4 0.1 90
v -89.1 0.1 90
v -89 0.1 90
v -88.9 0.1 90
v -80 0.1 90
v -98.4 0.1 89.8
v -95 0.1 89.8
v -94.9 0.1 89.8
v -90 0.1 89.8
v -89.8 0.1 89.8
v -85 0.1 89.8
v -84.9 0.1 89.8
v -80 0.1 89.8
v -95.5 0.1 89.7
v -95.2 0.1 89.7
v -95.1 0.1 89.7
v -95 0.1 89.7
v -90.5 0.1 89.7
v -90 0.1 89.7
v -85.5 0.1 89.7
v -85.2 0.1 89.7
v -85.1 0.1 89.7
v -85 0.1 89.7
v -80.5 0.1 89.7
v -80 0.1 89.7
v -95.4 0.1 89.6
v -95.3 0.1 89.6
v -95.2 0.1 89.6
v -95.1 0.1 89.6
v -90.5 0.1 89.6
v -90 0.1 89.6
v -85.4 0.1 89.6
v -85.3 0.1 89.6
v -85.2 0.1 89.6
v -85.1 0.1 89.6
v -80.5 0.1 89.6
v -80 0.1 89.6
v -95.5 0.1 89.5
v -95.4 0.1 89.5
v -95.3 0.1 89.5
v -95 0.1 89.5
v -90.5 0.1 89.5
v -90 0.1 89.5
v -85.5 0.1 89.5
v -85.4 0.1 89.5
v -85.3 0.1 89.5
v -85 0.1 89.5
v -80.5 0.1 89.5
v -80 0.1 89.5
v -90.4 0.1 89.4
v -90.1 0.1 89.4
v -80.4 0.1 89.4
v -80.1 0.1 89.4
v -90.4 0.1 89.3
v -90.1 0.1 89.3
v -80.4 0.1 89.3
v -80.1 0.1 89.3
v -90.5 0.1 89.2
v -90 0.1 89.2
v -80.5 0.1 89.2
v -80 0.1 89.2
v -95 0.1 88.4
v -94.9 0.1 88.4
v -85 0.1 88.4
v -84.9 0.1 88.4
v -89 0.1 85.5
v -88.8 0.1 85.5
v -89 0.1 85.4
v -88.9 0.1 85.4
v -89 0.1 85.3
v -88.9 0.1 85.3
v -88.9 0.1 85.2
v -88.8 0.1 85.2
v -88.9 0.1 85.1
v -88.8 0.1 85.1
v -89.8 0.1 85
v -89 0.1 85
v -88.8 0.1 85
v -88.4 0.1 85
v -89.8 0.1 84.9
v -88.4 0.1 84.9
v -89.4 0.1 80.5
v -89.1 0.1 80.5
v -89 0.1 80.5
v -88.9 0.1 80.5
v -89.3 0.1 80.4
v -89.2 0.1 80.4
v -89.3 0.1 80.1
v -89.2 0.1 80.1
v -100 0.1 80
v -98.4 0.1 80
v -90 0.1 80
v -89.8 0.1 80
v -89.4 0.1 80
v -89.1 0.1 80
v -89 0.1 80
v -88.9 0.1 80
v -80 0.1 80

# faces
f 3/3/1 2/3/1 1/3/1
f 4/3/1 2/3/1 3/3/1
f 5/3/2 6/3/2 14/3/2
f 6/1/2 7/1/2 15/1/2
f 14/3/2 6/3/2 15/3/2
f 7/2/2 8/2/2 16/2/2
f 15/1/2 7/1/2 16/1/2
f 8/1/2 9/1/2 17/1/2
f 16/2/2 8/2/2 17/2/2
f 9/2/2 10/2/2 18/2/2
f 17/1/2 9/1/2 18/1/2
f 10/1/2 11/1/2 19/1/2
f 18/2/2 10/2/2 19/2/2
f 11/2/2 12/2/2 20/2/2
f 19/1/2 11/1/2 20/1/2
f 12/1/2 13/1/2 21/1/2
f 20/2/2 12/2/2 21/2/2
f 21/1/2 13/1/2 22/1/2
f 25/3/3 24/3/3 23/3/3
f 26/3/3 24/3/3 25/3/3
f 27/3/4 28/3/4 29/3/4
f 29/3/4 28/3/4 30/3/4
f 29/1/4 30/1/4 31/1/4
f 31/1/4 30/1/4 32/1/4
f 31/2/4 32/2/4 33/2/4
f 33/2/4 32/2/4 34/2/4
f 33/1/4 34/1/4 35/1/4
f 35/1/4 34/1/4 36/1/4
f 35/2/4 36/2/4 37/2/4
f 37/2/4 36/2/4 38/2/4
f 37/1/4 38/1/4 39/1/4
f 39/1/4 38/1/4 40/1/4
f 39/2/4 40/2/4 41/2/4
f 41/2/4 40/2/4 42/2/4
f 41/1/4 42/1/4 43/1/4
f 43/1/4 42/1/4 44/1/4
f 47/3/5 46/3/5 45/3/5
f 48/3/5 46/3/5 47/3/5
f 49/3/5 46/3/5 48/3/5
f 50/3/5 46/3/5 49/3/5
f 51/1/5 50/1/5 49/1/5
f 52/1/5 50/1/5 51/1/5
f 53/1/5 51/1/5 49/1/5
f 53/2/5 52/2/5 51/2/5
f 54/2/5 52/2/5 53/2/5
f 55/1/5 53/1/5 49/1/5
f 55/1/5 54/1/5 53/1/5
f 56/2/5 52/2/5 54/2/5
f 56/1/5 54/1/5 55/1/5
f 57/2/5 56/2/5 55/2/5
f 57/2/5 52/2/5 56/2/5
f 58/1/5 50/1/5 52/1/5
f 58/2/5 52/2/5 57/2/5
f 59/2/5 57/2/5 55/2/5
f 59/1/5 58/1/5 57/1/5
f 60/1/5 50/1/5 58/1/5
f 60/1/5 58/1/5 59/1/5
f 61/2/5 49/2/5 48/2/5
f 61/1/5 55/1/5 49/1/5
f 62/2/5 59/2/5 55/2/5
f 62/1/5 55/1/5 61/1/5
f 62/2/5 60/2/5 59/2/5
f 63/1/5 50/1/5 60/1/5
f 63/2/5 60/2/5 62/2/5
f 64/1/5 50/1/5 63/1/5
f 65/2/5 62/2/5 61/2/5
f 65/2/5 61/2/5 48/2/5
f 65/2/5 64/2/5 63/2/5
f 65/2/5 63/2/5 62/2/5
f 66/1/5 50/1/5 64/1/5
f 66/2/5 64/2/5 65/2/5
f 67/1/5 66/1/5 65/1/5
f 68/1/5 66/1/5 67/1/5
f 69/1/5 66/1/5 68/1/5
f 70/1/5 66/1/5 69/1/5
f 71/2/5 68/2/5 67/2/5
f 72/2/5 68/2/5 71/2/5
f 73/2/5 71/2/5 67/2/5
f 73/1/5 72/1/5 71/1/5
f 74/2/5 68/2/5 72/2/5
f 74/1/5 72/1/5 73/1/5
f 75/3/5 47/3/5 45/3/5
f 75/1/5 48/1/5 47/1/5
f 76/2/5 65/2/5 48/2/5
f 76/1/5 48/1/5 75/1/5
f 77/1/5 67/1/5 65/1/5
f 77/2/5 65/2/5 76/2/5
f 78/2/5 74/2/5 73/2/5
f 78/1/5 67/1/5 77/1/5
f 78/2/5 73/2/5 67/2/5
f 79/2/5 68/2/5 74/2/5
f 79/2/5 74/2/5 78/2/5
f 79/1/5 69/1/5 68/1/5
f 80/2/5 70/2/5 69/2/5
f 80/1/5 69/1/5 79/1/5
f 81/1/5 66/1/5 70/1/5
f 81/2/5 70/2/5 80/2/5
f 82/1/5 50/1/5 66/1/5
f 82/1/5 66/1/5 81/1/5
f 83/2/5 78/2/5 77/2/5
f 83/2/5 77/2/5 76/2/5
f 83/2/5 82/2/5 81/2/5
f 83/2/5 79/2/5 78/2/5
f 83/2/5 80/2/5 79/2/5
f 83/2/5 76/2/5 75/2/5
f 83/2/5 81/2/5 80/2/5
f 83/3/5 75/3/5 45/3/5
f 84/2/5 82/2/5 83/2/5
f 85/2/5 82/2/5 84/2/5
f 86/2/5 82/2/5 85/2/5
f 87/2/5 82/2/5 86/2/5
f 88/2/5 82/2/5 87/2/5
f 89/2/5 82/2/5 88/2/5
f 90/2/5 82/2/5 89/2/5
f 91/1/5 84/1/5 83/1/5
f 92/1/5 84/1/5 91/1/5
f 93/1/5 84/1/5 92/1/5
f 94/2/5 85/2/5 84/2/5
f 94/1/5 84/1/5 93/1/5
f 95/1/5 86/1/5 85/1/5
f 96/2/5 87/2/5 86/2/5
f 96/1/5 86/1/5 95/1/5
f 97/1/5 88/1/5 87/1/5
f 98/1/5 88/1/5 97/1/5
f 99/1/5 88/1/5 98/1/5
f 100/2/5 89/2/5 88/2/5
f 100/1/5 88/1/5 99/1/5
f 101/1/5 90/1/5 89/1/5
f 102/1/5 90/1/5 101/1/5
f 103/2/5 92/2/5 91/2/5
f 104/2/5 92/2/5 103/2/5
f 105/1/5 93/1/5 92/1/5
f 105/2/5 92/2/5 104/2/5
f 106/2/5 94/2/5 93/2/5
f 106/1/5 93/1/5 105/1/5
f 107/1/5 95/1/5 85/1/5
f 107/2/5 96/2/5 95/2/5
f 108/2/5 87/2/5 96/2/5
f 108/2/5 96/2/5 107/2/5
f 109/2/5 98/2/5 97/2/5
f 110/2/5 98/2/5 109/2/5
f 111/1/5 99/1/5 98/1/5
f 111/2/5 98/2/5 110/2/5
f 112/2/5 100/2/5 99/2/5
f 112/1/5 99/1/5 111/1/5
f 113/1/5 101/1/5 89/1/5
f 113/2/5 102/2/5 101/2/5
f 114/2/5 102/2/5 113/2/5
f 115/1/5 91/1/5 83/1/5
f 115/2/5 103/2/5 91/2/5
f 116/1/5 104/1/5 103/1/5
f 116/2/5 103/2/5 115/2/5
f 117/2/5 105/2/5 104/2/5
f 117/1/5 104/1/5 116/1/5
f 117/2/5 106/2/5 105/2/5
f 118/2/5 85/2/5 94/2/5
f 118/2/5 106/2/5 117/2/5
f 118/2/5 94/2/5 106/2/5
f 119/1/5 107/1/5 85/1/5
f 119/1/5 108/1/5 107/1/5
f 120/2/5 87/2/5 108/2/5
f 120/1/5 108/1/5 119/1/5
f 121/2/5 109/2/5 97/2/5
f 121/1/5 97/1/5 87/1/5
f 122/1/5 110/1/5 109/1/5
f 122/2/5 109/2/5 121/2/5
f 123/2/5 111/2/5 110/2/5
f 123/1/5 110/1/5 122/1/5
f 123/2/5 112/2/5 111/2/5
f 124/2/5 89/2/5 100/2/5
f 124/2/5 112/2/5 123/2/5
f 124/2/5 100/2/5 112/2/5
f 125/1/5 113/1/5 89/1/5
f 125/1/5 114/1/5 113/1/5
f 126/1/5 114/1/5 125/1/5
f 127/2/5 120/2/5 119/2/5
f 128/2/5 120/2/5 127/2/5
f 129/2/5 126/2/5 125/2/5
f 130/2/5 126/2/5 129/2/5
f 131/2/5 127/2/5 119/2/5
f 131/1/5 128/1/5 127/1/5
f 132/2/5 120/2/5 128/2/5
f 132/1/5 128/1/5 131/1/5
f 133/1/5 130/1/5 129/1/5
f 133/2/5 129/2/5 125/2/5
f 134/2/5 126/2/5 130/2/5
f 134/1/5 130/1/5 133/1/5
f 135/1/5 119/1/5 85/1/5
f 135/2/5 131/2/5 119/2/5
f 135/2/5 132/2/5 131/2/5
f 136/2/5 87/2/5 120/2/5
f 136/2/5 132/2/5 135/2/5
f 136/2/5 120/2/5 132/2/5
f 137/1/5 125/1/5 89/1/5
f 137/2/5 134/2/5 133/2/5
f 137/2/5 133/2/5 125/2/5
f 138/2/5 126/2/5 134/2/5
f 138/2/5 134/2/5 137/2/5
f 139/1/5 117/1/5 116/1/5
f 139/2/5 85/2/5 118/2/5
f 139/1/5 116/1/5 115/1/5
f 139/1/5 118/1/5 117/1/5
f 140/1/5 135/1/5 85/1/5
f 140/2/5 85/2/5 139/2/5
f 140/1/5 136/1/5 135/1/5
f 141/1/5 123/1/5 122/1/5
f 141/2/5 89/2/5 124/2/5
f 141/1/5 122/1/5 121/1/5
f 141/1/5 124/1/5 123/1/5
f 142/1/5 138/1/5 137/1/5
f 142/2/5 89/2/5 141/2/5
f 142/1/5 137/1/5 89/1/5
f 143/1/5 141/1/5 121/1/5
f 143/1/5 121/1/5 87/1/5
f 143/1/5 142/1/5 141/1/5
f 144/1/5 142/1/5 143/1/5
f 145/1/5 143/1/5 87/1/5
f 145/2/5 144/2/5 143/2/5
f 146/2/5 144/2/5 145/2/5
f 147/1/5 145/1/5 87/1/5
f 147/1/5 146/1/5 145/1/5
f 148/2/5 144/2/5 146/2/5
f 148/1/5 146/1/5 147/1/5
f 149/2/5 148/2/5 147/2/5
f 149/2/5 144/2/5 148/2/5
f 150/1/5 142/1/5 144/1/5
f 150/2/5 144/2/5 149/2/5
f 151/2/5 149/2/5 147/2/5
f 151/1/5 150/1/5 149/1/5
f 152/1/5 142/1/5 150/1/5
f 152/1/5 150/1/5 151/1/5
f 153/2/5 87/2/5 136/2/5
f 153/1/5 147/1/5 87/1/5
f 154/2/5 151/2/5 147/2/5
f 154/1/5 147/1/5 153/1/5
f 154/2/5 152/2/5 151/2/5
f 155/1/5 142/1/5 152/1/5
f 155/2/5 152/2/5 154/2/5
f 156/1/5 142/1/5 155/1/5
f 157/2/5 154/2/5 153/2/5
f 157/2/5 153/2/5 136/2/5
f 157/2/5 156/2/5 155/2/5
f 157/2/5 155/2/5 154/2/5
f 158/1/5 142/1/5 156/1/5
f 158/2/5 156/2/5 157/2/5
f 159/1/5 158/1/5 157/1/5
f 160/1/5 158/1/5 159/1/5
f 161/1/5 158/1/5 160/1/5
f 162/1/5 158/1/5 161/1/5
f 163/2/5 160/2/5 159/2/5
f 164/2/5 160/2/5 163/2/5
f 165/2/5 163/2/5 159/2/5
f 165/1/5 164/1/5 163/1/5
f 166/2/5 160/2/5 164/2/5
f 166/1/5 164/1/5 165/1/5
f 167/3/5 83/3/5 45/3/5
f 168/1/5 115/1/5 83/1/5
f 168/3/5 83/3/5 167/3/5
f 168/1/5 139/1/5 115/1/5
f 168/1/5 140/1/5 139/1/5
f 169/1/5 136/1/5 140/1/5
f 169/1/5 140/1/5 168/1/5
f 169/2/5 157/2/5 136/2/5
f 170/1/5 159/1/5 157/1/5
f 170/2/5 157/2/5 169/2/5
f 171/2/5 166/2/5 165/2/5
f 171/1/5 159/1/5 170/1/5
f 171/2/5 165/2/5 159/2/5
f 172/2/5 160/2/5 166/2/5
f 172/2/5 166/2/5 171/2/5
f 172/1/5 161/1/5 160/1/5
f 173/2/5 162/2/5 161/2/5
f 173/1/5 161/1/5 172/1/5
f 174/1/5 158/1/5 162/1/5
f 174/2/5 162/2/5 173/2/5
f 175/1/5 138/1/5 142/1/5
f 175/1/5 158/1/5 174/1/5
f 175/1/5 142/1/5 158/1/5
f 176/3/6 177/3/6 178/3/6
f 178/3/6 177/3/6 179/3/6
f 179/3/6 177/3/6 180/3/6
f 180/3/6 177/3/6 181/3/6
f 180/1/6 181/1/6 182/1/6
f 182/1/6 181/1/6 183/1/6
f 180/1/6 182/1/6 184/1/6
f 182/2/6 183/2/6 184/2/6
f 184/2/6 183/2/6 185/2/6
f 180/1/6 184/1/6 186/1/6
f 184/1/6 185/1/6 186/1/6
f 185/2/6 183/2/6 187/2/6
f 186/1/6 185/1/6 187/1/6
f 186/2/6 187/2/6 188/2/6
f 187/2/6 183/2/6 188/2/6
f 183/1/6 181/1/6 189/1/6
f 188/2/6 183/2/6 189/2/6
f 186/2/6 188/2/6 190/2/6
f 188/1/6 189/1/6 190/1/6
f 189/1/6 181/1/6 191/1/6
f 190/1/6 189/1/6 191/1/6
f 179/2/6 180/2/6 192/2/6
f 180/1/6 186/1/6 192/1/6
f 186/2/6 190/2/6 193/2/6
f 192/1/6 186/1/6 193/1/6
f 190/2/6 191/2/6 193/2/6
f 191/1/6 181/1/6 194/1/6
f 193/2/6 191/2/6 194/2/6
f 194/1/6 181/1/6 195/1/6
f 192/2/6 193/2/6 196/2/6
f 179/2/6 192/2/6 196/2/6
f 194/2/6 195/2/6 196/2/6
f 193/2/6 194/2/6 196/2/6
f 195/1/6 181/1/6 197/1/6
f 196/2/6 195/2/6 197/2/6
f 196/1/6 197/1/6 198/1/6
f 198/1/6 197/1/6 199/1/6
f 199/1/6 197/1/6 200/1/6
f 200/1/6 197/1/6 201/1/6
f 198/2/6 199/2/6 202/2/6
f 202/2/6 199/2/6 203/2/6
f 198/2/6 202/2/6 204/2/6
f 202/1/6 203/1/6 204/1/6
f 203/2/6 199/2/6 205/2/6
f 204/1/6 203/1/6 205/1/6
f 176/3/6 178/3/6 206/3/6
f 178/1/6 179/1/6 206/1/6
f 179/2/6 196/2/6 207/2/6
f 206/1/6 179/1/6 207/1/6
f 196/1/6 198/1/6 208/1/6
f 207/2/6 196/2/6 208/2/6
f 204/2/6 205/2/6 209/2/6
f 208/1/6 198/1/6 209/1/6
f 198/2/6 204/2/6 209/2/6
f 205/2/6 199/2/6 210/2/6
f 209/2/6 205/2/6 210/2/6
f 199/1/6 200/1/6 210/1/6
f 200/2/6 201/2/6 211/2/6
f 210/1/6 200/1/6 211/1/6
f 201/1/6 197/1/6 212/1/6
f 211/2/6 201/2/6 212/2/6
f 197/1/6 181/1/6 213/1/6
f 212/1/6 197/1/6 213/1/6
f 208/2/6 209/2/6 214/2/6
f 207/2/6 208/2/6 214/2/6
f 212/2/6 213/2/6 214/2/6
f 209/2/6 210/2/6 214/2/6
f 210/2/6 211/2/6 214/2/6
f 206/2/6 207/2/6 214/2/6
f 211/2/6 212/2/6 214/2/6
f 176/3/6 206/3/6 214/3/6
f 214/2/6 213/2/6 215/2/6
f 215/2/6 213/2/6 216/2/6
f 216/2/6 213/2/6 217/2/6
f 217/2/6 213/2/6 218/2/6
f 218/2/6 213/2/6 219/2/6
f 219/2/6 213/2/6 220/2/6
f 220/2/6 213/2/6 221/2/6
f 214/1/6 215/1/6 222/1/6
f 222/1/6 215/1/6 223/1/6
f 223/1/6 215/1/6 224/1/6
f 215/2/6 216/2/6 225/2/6
f 224/1/6 215/1/6 225/1/6
f 216/1/6 217/1/6 226/1/6
f 217/2/6 218/2/6 227/2/6
f 226/1/6 217/1/6 227/1/6
f 218/1/6 219/1/6 228/1/6
f 228/1/6 219/1/6 229/1/6
f 229/1/6 219/1/6 230/1/6
f 219/2/6 220/2/6 231/2/6
f 230/1/6 219/1/6 231/1/6
f 220/1/6 221/1/6 232/1/6
f 232/1/6 221/1/6 233/1/6
f 222/2/6 223/2/6 234/2/6
f 234/2/6 223/2/6 235/2/6
f 223/1/6 224/1/6 236/1/6
f 235/2/6 223/2/6 236/2/6
f 224/2/6 225/2/6 237/2/6
f 236/1/6 224/1/6 237/1/6
f 216/1/6 226/1/6 238/1/6
f 226/2/6 227/2/6 238/2/6
f 227/2/6 218/2/6 239/2/6
f 238/2/6 227/2/6 239/2/6
f 228/2/6 229/2/6 240/2/6
f 240/2/6 229/2/6 241/2/6
f 229/1/6 230/1/6 242/1/6
f 241/2/6 229/2/6 242/2/6
f 230/2/6 231/2/6 243/2/6
f 242/1/6 230/1/6 243/1/6
f 220/1/6 232/1/6 244/1/6
f 232/2/6 233/2/6 244/2/6
f 244/2/6 233/2/6 245/2/6
f 214/1/6 222/1/6 246/1/6
f 222/2/6 234/2/6 246/2/6
f 234/1/6 235/1/6 247/1/6
f 246/2/6 234/2/6 247/2/6
f 235/2/6 236/2/6 248/2/6
f 247/1/6 235/1/6 248/1/6
f 236/2/6 237/2/6 248/2/6
f 225/2/6 216/2/6 249/2/6
f 248/2/6 237/2/6 249/2/6
f 237/2/6 225/2/6 249/2/6
f 216/1/6 238/1/6 250/1/6
f 238/1/6 239/1/6 250/1/6
f 239/2/6 218/2/6 251/2/6
f 250/1/6 239/1/6 251/1/6
f 228/2/6 240/2/6 252/2/6
f 218/1/6 228/1/6 252/1/6
f 240/1/6 241/1/6 253/1/6
f 252/2/6 240/2/6 253/2/6
f 241/2/6 242/2/6 254/2/6
f 253/1/6 241/1/6 254/1/6
f 242/2/6 243/2/6 254/2/6
f 231/2/6 220/2/6 255/2/6
f 254/2/6 243/2/6 255/2/6
f 243/2/6 231/2/6 255/2/6
f 220/1/6 244/1/6 256/1/6
f 244/1/6 245/1/6 256/1/6
f 256/1/6 245/1/6 257/1/6
f 250/2/6 251/2/6 258/2/6
f 258/2/6 251/2/6 259/2/6
f 256/2/6 257/2/6 260/2/6
f 260/2/6 257/2/6 261/2/6
f 250/2/6 258/2/6 262/2/6
f 258/1/6 259/1/6 262/1/6
f 259/2/6 251/2/6 263/2/6
f 262/1/6 259/1/6 263/1/6
f 260/1/6 261/1/6 264/1/6
f 256/2/6 260/2/6 264/2/6
f 261/2/6 257/2/6 265/2/6
f 264/1/6 261/1/6 265/1/6
f 216/1/6 250/1/6 266/1/6
f 250/2/6 262/2/6 266/2/6
f 262/2/6 263/2/6 266/2/6
f 251/2/6 218/2/6 267/2/6
f 266/2/6 263/2/6 267/2/6
f 263/2/6 251/2/6 267/2/6
f 220/1/6 256/1/6 268/1/6
f 264/2/6 265/2/6 268/2/6
f 256/2/6 264/2/6 268/2/6
f 265/2/6 257/2/6 269/2/6
f 268/2/6 265/2/6 269/2/6
f 247/1/6 248/1/6 270/1/6
f 249/2/6 216/2/6 270/2/6
f 246/1/6 247/1/6 270/1/6
f 248/1/6 249/1/6 270/1/6
f 216/1/6 266/1/6 271/1/6
f 270/2/6 216/2/6 271/2/6
f 266/1/6 267/1/6 271/1/6
f 253/1/6 254/1/6 272/1/6
f 255/2/6 220/2/6 272/2/6
f 252/1/6 253/1/6 272/1/6
f 254/1/6 255/1/6 272/1/6
f 268/1/6 269/1/6 273/1/6
f 272/2/6 220/2/6 273/2/6
f 220/1/6 268/1/6 273/1/6
f 252/1/6 272/1/6 274/1/6
f 218/1/6 252/1/6 274/1/6
f 272/1/6 273/1/6 274/1/6
f 274/1/6 273/1/6 275/1/6
f 218/1/6 274/1/6 276/1/6
f 274/2/6 275/2/6 276/2/6
f 276/2/6 275/2/6 277/2/6
f 218/1/6 276/1/6 278/1/6
f 276/1/6 277/1/6 278/1/6
f 277/2/6 275/2/6 279/2/6
f 278/1/6 277/1/6 279/1/6
f 278/2/6 279/2/6 280/2/6
f 279/2/6 275/2/6 280/2/6
f 275/1/6 273/1/6 281/1/6
f 280/2/6 275/2/6 281/2/6
f 278/2/6 280/2/6 282/2/6
f 280/1/6 281/1/6 282/1/6
f 281/1/6 273/1/6 283/1/6
f 282/1/6 281/1/6 283/1/6
f 267/2/6 218/2/6 284/2/6
f 218/1/6 278/1/6 284/1/6
f 278/2/6 282/2/6 285/2/6
f 284/1/6 278/1/6 285/1/6
f 282/2/6 283/2/6 285/2/6
f 283/1/6 273/1/6 286/1/6
f 285/2/6 283/2/6 286/2/6
f 286/1/6 273/1/6 287/1/6
f 284/2/6 285/2/6 288/2/6
f 267/2/6 284/2/6 288/2/6
f 286/2/6 287/2/6 288/2/6
f 285/2/6 286/2/6 288/2/6
f 287/1/6 273/1/6 289/1/6
f 288/2/6 287/2/6 289/2/6
f 288/1/6 289/1/6 290/1/6
f 290/1/6 289/1/6 291/1/6
f 291/1/6 289/1/6 292/1/6
f 292/1/6 289/1/6 293/1/6
f 290/2/6 291/2/6 294/2/6
f 294/2/6 291/2/6 295/2/6
f 290/2/6 294/2/6 296/2/6
f 294/1/6 295/1/6 296/1/6
f 295/2/6 291/2/6 297/2/6
f 296/1/6 295/1/6 297/1/6
f 176/3/6 214/3/6 298/3/6
f 214/1/6 246/1/6 299/1/6
f 298/3/6 214/3/6 299/3/6
f 246/1/6 270/1/6 299/1/6
f 270/1/6 271/1/6 299/1/6
f 271/1/6 267/1/6 300/1/6
f 299/1/6 271/1/6 300/1/6
f 267/2/6 288/2/6 300/2/6
f 288/1/6 290/1/6 301/1/6
f 300/2/6 288/2/6 301/2/6
f 296/2/6 297/2/6 302/2/6
f 301/1/6 290/1/6 302/1/6
f 290/2/6 296/2/6 302/2/6
f 297/2/6 291/2/6 303/2/6
f 302/2/6 297/2/6 303/2/6
f 291/1/6 292/1/6 303/1/6
f 292/2/6 293/2/6 304/2/6
f 303/1/6 292/1/6 304/1/6
f 293/1/6 289/1/6 305/1/6
f 304/2/6 293/2/6 305/2/6
f 273/1/6 269/1/6 306/1/6
f 305/1/6 289/1/6 306/1/6
f 289/1/6 273/1/6 306/1/6
