# MagicaVoxel @ Ephtracy

# group
o Door

# material
mtllib Keycard door-0-Door.mtl
usemtl palette

# normals
vn -1 0 0
vn 1 0 0
vn 0 0 1
vn 0 0 -1
vn 0 -1 0
vn 0 1 0

# texcoords
vt 0.939453 0.5
vt 0.943359 0.5
vt 0.970703 0.5
vt 0.974609 0.5
vt 0.978516 0.5
vt 0.982422 0.5
vt 0.986328 0.5
vt 0.990234 0.5

# verts
v -2.9 0 0
v -2.9 0 -0.1
v -2.9 0.2 0
v -2.9 0.2 -0.1
v -2.9 11.9 0
v -2.9 11.9 -0.1
v -2.8 5.5 0.1
v -2.8 5.5 0
v -2.8 5.5 -0.1
v -2.8 5.5 -0.2
v -2.8 5.6 0.1
v -2.8 5.6 0
v -2.8 5.6 -0.1
v -2.8 5.6 -0.2
v -2.8 6.1 0.1
v -2.8 6.1 0
v -2.8 6.1 -0.1
v -2.8 6.1 -0.2
v -2.6 7 0.2
v -2.6 7 0
v -2.6 7 -0.1
v -2.6 7 -0.3
v -2.6 7.1 0.2
v -2.6 7.1 0.1
v -2.6 7.1 -0.2
v -2.6 7.1 -0.3
v -2.6 7.2 0.2
v -2.6 7.2 0.1
v -2.6 7.2 -0.2
v -2.6 7.2 -0.3
v -2.6 7.3 0.2
v -2.6 7.3 0.1
v -2.6 7.3 -0.2
v -2.6 7.3 -0.3
v -2.6 8.1 0.1
v -2.6 8.1 0
v -2.6 8.1 -0.1
v -2.6 8.1 -0.2
v -2.1 7.4 0.1
v -2.1 7.4 0
v -2.1 7.4 -0.1
v -2.1 7.4 -0.2
v -2.1 7.5 0
v -2.1 7.5 -0.1
v -2.1 7.6 0
v -2.1 7.6 -0.1
v -2.1 7.7 0
v -2.1 7.7 -0.1
v -2.1 7.9 0
v -2.1 7.9 -0.1
v -2.1 8 0.1
v -2.1 8 0
v -2.1 8 -0.1
v -2.1 8 -0.2
v -2.5 7.4 0.1
v -2.5 7.4 0
v -2.5 7.4 -0.1
v -2.5 7.4 -0.2
v -2.5 7.5 0
v -2.5 7.5 -0.1
v -2.5 7.6 0
v -2.5 7.6 -0.1
v -2.5 7.7 0
v -2.5 7.7 -0.1
v -2.5 7.8 0
v -2.5 7.8 -0.1
v -2.5 7.9 0
v -2.5 7.9 -0.1
v -2.5 8 0.1
v -2.5 8 0
v -2.5 8 -0.1
v -2.5 8 -0.2
v -1.6 7 0.2
v -1.6 7 0
v -1.6 7 -0.1
v -1.6 7 -0.3
v -1.6 7.1 0.2
v -1.6 7.1 0.1
v -1.6 7.1 -0.2
v -1.6 7.1 -0.3
v -1.6 7.2 0.2
v -1.6 7.2 0.1
v -1.6 7.2 -0.2
v -1.6 7.2 -0.3
v -1.6 7.3 0.2
v -1.6 7.3 0.1
v -1.6 7.3 -0.2
v -1.6 7.3 -0.3
v -1.6 8.1 0.1
v -1.6 8.1 0
v -1.6 8.1 -0.1
v -1.6 8.1 -0.2
v 2.5 5.5 0.1
v 2.5 5.5 0
v 2.5 5.5 -0.1
v 2.5 5.5 -0.2
v 2.5 6.1 0.1
v 2.5 6.1 0
v 2.5 6.1 -0.1
v 2.5 6.1 -0.2
v 2.7 0 0
v 2.7 0 -0.1
v 2.7 0.4 0
v 2.7 0.4 -0.1
v 2.7 0.7 0
v 2.7 0.7 -0.1
v 2.7 1.1 0
v 2.7 1.1 -0.1
v 2.7 1.4 0
v 2.7 1.4 -0.1
v 2.7 10.3 0
v 2.7 10.3 -0.1
v 2.7 10.6 0
v 2.7 10.6 -0.1
v 2.7 11 0
v 2.7 11 -0.1
v 2.7 11.3 0
v 2.7 11.3 -0.1
v 2.7 11.9 0
v 2.7 11.9 -0.1
v 2.8 0.4 0
v 2.8 0.4 -0.1
v 2.8 0.7 0
v 2.8 0.7 -0.1
v 2.8 1.1 0
v 2.8 1.1 -0.1
v 2.8 1.4 0
v 2.8 1.4 -0.1
v 2.8 10.3 0
v 2.8 10.3 -0.1
v 2.8 10.6 0
v 2.8 10.6 -0.1
v 2.8 11 0
v 2.8 11 -0.1
v 2.8 11.3 0
v 2.8 11.3 -0.1
v -2.6 7 0.2
v -2.6 7.1 0.2
v -2.6 7.2 0.2
v -2.6 7.3 0.2
v -1.6 7 0.2
v -1.6 7.1 0.2
v -1.6 7.2 0.2
v -1.6 7.3 0.2
v -2.8 5.5 0.1
v -2.8 5.6 0.1
v -2.8 6.1 0.1
v -2.7 5.6 0.1
v -2.7 5.9 0.1
v -2.6 5.9 0.1
v -2.6 6 0.1
v -2.6 7.1 0.1
v -2.6 7.2 0.1
v -2.6 7.3 0.1
v -2.6 8.1 0.1
v -2.5 7.4 0.1
v -2.5 8 0.1
v -2.1 7.4 0.1
v -2.1 8 0.1
v -2 7.4 0.1
v -2 8 0.1
v -1.7 7.4 0.1
v -1.7 8 0.1
v -1.6 7.1 0.1
v -1.6 7.2 0.1
v -1.6 7.3 0.1
v -1.6 8.1 0.1
v 2.3 5.6 0.1
v 2.3 5.7 0.1
v 2.4 5.7 0.1
v 2.4 6 0.1
v 2.4 6.1 0.1
v 2.5 5.5 0.1
v 2.5 6.1 0.1
v -2.9 0 0
v -2.9 0.2 0
v -2.9 11.9 0
v -2.8 5.5 0
v -2.8 5.6 0
v -2.8 6.1 0
v -2.7 0.2 0
v -2.7 5.4 0
v -2.7 5.5 0
v -2.7 6.1 0
v -2.7 10.8 0
v -2.6 7 0
v -2.6 8.1 0
v -2.6 10.8 0
v -2.6 11.4 0
v -2.5 7.4 0
v -2.5 7.5 0
v -2.5 7.6 0
v -2.5 7.7 0
v -2.5 7.8 0
v -2.5 7.9 0
v -2.5 8 0
v -2.5 11.4 0
v -2.5 11.5 0
v -2.4 7.4 0
v -2.4 7.5 0
v -2.4 7.6 0
v -2.4 7.7 0
v -2.4 7.8 0
v -2.4 7.9 0
v -2.3 7.4 0
v -2.3 7.5 0
v -2.3 7.6 0
v -2.3 7.7 0
v -2.3 7.8 0
v -2.3 7.9 0
v -2.3 8 0
v -2.3 11.5 0
v -2.3 11.6 0
v -2.2 7.5 0
v -2.2 7.6 0
v -2.2 7.7 0
v -2.2 7.8 0
v -2.2 7.9 0
v -2.1 7.4 0
v -2.1 7.5 0
v -2.1 7.6 0
v -2.1 7.7 0
v -2.1 7.9 0
v -2.1 8 0
v -1.9 11.6 0
v -1.9 11.7 0
v -1.6 7 0
v -1.6 8.1 0
v 1.7 0.2 0
v 1.7 0.3 0
v 1.9 0.3 0
v 1.9 0.4 0
v 2.2 0.4 0
v 2.2 0.5 0
v 2.3 0.5 0
v 2.3 0.7 0
v 2.4 0.7 0
v 2.4 0.9 0
v 2.4 6.1 0
v 2.5 0.9 0
v 2.5 5.4 0
v 2.5 5.5 0
v 2.5 6.1 0
v 2.5 11.7 0
v 2.5 11.9 0
v 2.7 0 0
v 2.7 0.4 0
v 2.7 0.7 0
v 2.7 1.1 0
v 2.7 1.4 0
v 2.7 10.3 0
v 2.7 10.6 0
v 2.7 11 0
v 2.7 11.3 0
v 2.7 11.9 0
v 2.8 0.4 0
v 2.8 0.7 0
v 2.8 1.1 0
v 2.8 1.4 0
v 2.8 10.3 0
v 2.8 10.6 0
v 2.8 11 0
v 2.8 11.3 0
v -2.9 0 -0.1
v -2.9 0.2 -0.1
v -2.9 11.9 -0.1
v -2.8 5.5 -0.1
v -2.8 5.6 -0.1
v -2.8 6.1 -0.1
v -2.7 0.2 -0.1
v -2.7 5.4 -0.1
v -2.7 5.5 -0.1
v -2.7 6.1 -0.1
v -2.7 10.8 -0.1
v -2.6 7 -0.1
v -2.6 8.1 -0.1
v -2.6 10.8 -0.1
v -2.6 11.4 -0.1
v -2.5 7.4 -0.1
v -2.5 7.5 -0.1
v -2.5 7.6 -0.1
v -2.5 7.7 -0.1
v -2.5 7.8 -0.1
v -2.5 7.9 -0.1
v -2.5 8 -0.1
v -2.5 11.4 -0.1
v -2.5 11.5 -0.1
v -2.4 7.4 -0.1
v -2.4 7.5 -0.1
v -2.4 7.6 -0.1
v -2.4 7.7 -0.1
v -2.4 7.8 -0.1
v -2.4 7.9 -0.1
v -2.3 7.4 -0.1
v -2.3 7.5 -0.1
v -2.3 7.6 -0.1
v -2.3 7.7 -0.1
v -2.3 7.8 -0.1
v -2.3 7.9 -0.1
v -2.3 8 -0.1
v -2.3 11.5 -0.1
v -2.3 11.6 -0.1
v -2.2 7.5 -0.1
v -2.2 7.6 -0.1
v -2.2 7.7 -0.1
v -2.2 7.8 -0.1
v -2.2 7.9 -0.1
v -2.1 7.4 -0.1
v -2.1 7.5 -0.1
v -2.1 7.6 -0.1
v -2.1 7.7 -0.1
v -2.1 7.9 -0.1
v -2.1 8 -0.1
v -1.9 11.6 -0.1
v -1.9 11.7 -0.1
v -1.6 7 -0.1
v -1.6 8.1 -0.1
v 1.7 0.2 -0.1
v 1.7 0.3 -0.1
v 1.9 0.3 -0.1
v 1.9 0.4 -0.1
v 2.2 0.4 -0.1
v 2.2 0.5 -0.1
v 2.3 0.5 -0.1
v 2.3 0.7 -0.1
v 2.4 0.7 -0.1
v 2.4 0.9 -0.1
v 2.4 6.1 -0.1
v 2.5 0.9 -0.1
v 2.5 5.4 -0.1
v 2.5 5.5 -0.1
v 2.5 6.1 -0.1
v 2.5 11.7 -0.1
v 2.5 11.9 -0.1
v 2.7 0 -0.1
v 2.7 0.4 -0.1
v 2.7 0.7 -0.1
v 2.7 1.1 -0.1
v 2.7 1.4 -0.1
v 2.7 10.3 -0.1
v 2.7 10.6 -0.1
v 2.7 11 -0.1
v 2.7 11.3 -0.1
v 2.7 11.9 -0.1
v 2.8 0.4 -0.1
v 2.8 0.7 -0.1
v 2.8 1.1 -0.1
v 2.8 1.4 -0.1
v 2.8 10.3 -0.1
v 2.8 10.6 -0.1
v 2.8 11 -0.1
v 2.8 11.3 -0.1
v -2.8 5.5 -0.2
v -2.8 5.6 -0.2
v -2.8 6.1 -0.2
v -2.7 5.6 -0.2
v -2.7 5.9 -0.2
v -2.6 5.9 -0.2
v -2.6 6 -0.2
v -2.6 7.1 -0.2
v -2.6 7.2 -0.2
v -2.6 7.3 -0.2
v -2.6 8.1 -0.2
v -2.5 7.4 -0.2
v -2.5 8 -0.2
v -2.1 7.4 -0.2
v -2.1 8 -0.2
v -2 7.4 -0.2
v -2 8 -0.2
v -1.7 7.4 -0.2
v -1.7 8 -0.2
v -1.6 7.1 -0.2
v -1.6 7.2 -0.2
v -1.6 7.3 -0.2
v -1.6 8.1 -0.2
v 2.3 5.6 -0.2
v 2.3 5.7 -0.2
v 2.4 5.7 -0.2
v 2.4 6 -0.2
v 2.4 6.1 -0.2
v 2.5 5.5 -0.2
v 2.5 6.1 -0.2
v -2.6 7 -0.3
v -2.6 7.1 -0.3
v -2.6 7.2 -0.3
v -2.6 7.3 -0.3
v -1.6 7 -0.3
v -1.6 7.1 -0.3
v -1.6 7.2 -0.3
v -1.6 7.3 -0.3
v -2.9 0 0
v 2.7 0 0
v -2.9 0 -0.1
v 2.7 0 -0.1
v 2.7 0.4 0
v 2.8 0.4 0
v 2.7 0.4 -0.1
v 2.8 0.4 -0.1
v 2.7 1.1 0
v 2.8 1.1 0
v 2.7 1.1 -0.1
v 2.8 1.1 -0.1
v -2.8 5.5 0.1
v 2.5 5.5 0.1
v -2.8 5.5 0
v -2.7 5.5 0
v 2.5 5.5 0
v -2.8 5.5 -0.1
v -2.7 5.5 -0.1
v 2.5 5.5 -0.1
v -2.8 5.5 -0.2
v 2.5 5.5 -0.2
v -2.6 7 0.2
v -1.6 7 0.2
v -2.6 7 0
v -1.6 7 0
v -2.6 7 -0.1
v -1.6 7 -0.1
v -2.6 7 -0.3
v -1.6 7 -0.3
v -2.6 7.2 0.2
v -1.6 7.2 0.2
v -2.6 7.2 0.1
v -1.6 7.2 0.1
v -2.6 7.2 -0.2
v -1.6 7.2 -0.2
v -2.6 7.2 -0.3
v -1.6 7.2 -0.3
v -2.5 8 0.1
v -2.1 8 0.1
v -2.5 8 0
v -2.3 8 0
v -2.1 8 0
v -2.5 8 -0.1
v -2.3 8 -0.1
v -2.1 8 -0.1
v -2.5 8 -0.2
v -2.1 8 -0.2
v 2.7 10.3 0
v 2.8 10.3 0
v 2.7 10.3 -0.1
v 2.8 10.3 -0.1
v 2.7 11 0
v 2.8 11 0
v 2.7 11 -0.1
v 2.8 11 -0.1
v 2.7 0.7 0
v 2.8 0.7 0
v 2.7 0.7 -0.1
v 2.8 0.7 -0.1
v 2.7 1.4 0
v 2.8 1.4 0
v 2.7 1.4 -0.1
v 2.8 1.4 -0.1
v -2.8 6.1 0.1
v 2.4 6.1 0.1
v 2.5 6.1 0.1
v -2.8 6.1 0
v -2.7 6.1 0
v 2.4 6.1 0
v 2.5 6.1 0
v -2.8 6.1 -0.1
v -2.7 6.1 -0.1
v 2.4 6.1 -0.1
v 2.5 6.1 -0.1
v -2.8 6.1 -0.2
v 2.4 6.1 -0.2
v 2.5 6.1 -0.2
v -2.6 7.1 0.2
v -1.6 7.1 0.2
v -2.6 7.1 0.1
v -1.6 7.1 0.1
v -2.6 7.1 -0.2
v -1.6 7.1 -0.2
v -2.6 7.1 -0.3
v -1.6 7.1 -0.3
v -2.6 7.3 0.2
v -1.6 7.3 0.2
v -2.6 7.3 0.1
v -1.6 7.3 0.1
v -2.6 7.3 -0.2
v -1.6 7.3 -0.2
v -2.6 7.3 -0.3
v -1.6 7.3 -0.3
v -2.5 7.4 0.1
v -2.1 7.4 0.1
v -2.5 7.4 0
v -2.4 7.4 0
v -2.3 7.4 0
v -2.1 7.4 0
v -2.5 7.4 -0.1
v -2.4 7.4 -0.1
v -2.3 7.4 -0.1
v -2.1 7.4 -0.1
v -2.5 7.4 -0.2
v -2.1 7.4 -0.2
v -2.6 8.1 0.1
v -1.6 8.1 0.1
v -2.6 8.1 0
v -1.6 8.1 0
v -2.6 8.1 -0.1
v -1.6 8.1 -0.1
v -2.6 8.1 -0.2
v -1.6 8.1 -0.2
v 2.7 10.6 0
v 2.8 10.6 0
v 2.7 10.6 -0.1
v 2.8 10.6 -0.1
v 2.7 11.3 0
v 2.8 11.3 0
v 2.7 11.3 -0.1
v 2.8 11.3 -0.1
v -2.9 11.9 0
v 2.5 11.9 0
v 2.7 11.9 0
v -2.9 11.9 -0.1
v 2.5 11.9 -0.1
v 2.7 11.9 -0.1

# faces
f 3/5/1 2/5/1 1/5/1
f 4/5/1 2/5/1 3/5/1
f 5/3/1 4/3/1 3/3/1
f 6/3/1 4/3/1 5/3/1
f 11/6/1 8/6/1 7/6/1
f 12/6/1 8/6/1 11/6/1
f 13/6/1 10/6/1 9/6/1
f 14/6/1 10/6/1 13/6/1
f 15/8/1 12/8/1 11/8/1
f 16/8/1 12/8/1 15/8/1
f 17/8/1 14/8/1 13/8/1
f 18/8/1 14/8/1 17/8/1
f 23/1/1 20/1/1 19/1/1
f 24/1/1 20/1/1 23/1/1
f 25/1/1 22/1/1 21/1/1
f 26/1/1 22/1/1 25/1/1
f 28/1/1 20/1/1 24/1/1
f 29/1/1 25/1/1 21/1/1
f 31/1/1 28/1/1 27/1/1
f 32/1/1 20/1/1 28/1/1
f 32/1/1 28/1/1 31/1/1
f 33/1/1 30/1/1 29/1/1
f 33/1/1 29/1/1 21/1/1
f 34/1/1 30/1/1 33/1/1
f 35/1/1 20/1/1 32/1/1
f 36/1/1 20/1/1 35/1/1
f 37/1/1 33/1/1 21/1/1
f 38/1/1 33/1/1 37/1/1
f 43/1/1 40/1/1 39/1/1
f 44/1/1 42/1/1 41/1/1
f 45/1/1 43/1/1 39/1/1
f 46/1/1 42/1/1 44/1/1
f 47/1/1 45/1/1 39/1/1
f 48/1/1 42/1/1 46/1/1
f 49/1/1 47/1/1 39/1/1
f 50/1/1 42/1/1 48/1/1
f 51/1/1 49/1/1 39/1/1
f 52/1/1 49/1/1 51/1/1
f 53/1/1 42/1/1 50/1/1
f 54/1/1 42/1/1 53/1/1
f 55/1/2 56/1/2 59/1/2
f 57/1/2 58/1/2 60/1/2
f 55/1/2 59/1/2 61/1/2
f 60/1/2 58/1/2 62/1/2
f 55/1/2 61/1/2 63/1/2
f 62/1/2 58/1/2 64/1/2
f 55/1/2 63/1/2 65/1/2
f 64/1/2 58/1/2 66/1/2
f 55/1/2 65/1/2 67/1/2
f 66/1/2 58/1/2 68/1/2
f 55/1/2 67/1/2 69/1/2
f 69/1/2 67/1/2 70/1/2
f 68/1/2 58/1/2 71/1/2
f 71/1/2 58/1/2 72/1/2
f 73/1/2 74/1/2 77/1/2
f 77/1/2 74/1/2 78/1/2
f 75/1/2 76/1/2 79/1/2
f 79/1/2 76/1/2 80/1/2
f 78/1/2 74/1/2 82/1/2
f 75/1/2 79/1/2 83/1/2
f 81/1/2 82/1/2 85/1/2
f 82/1/2 74/1/2 86/1/2
f 85/1/2 82/1/2 86/1/2
f 83/1/2 84/1/2 87/1/2
f 75/1/2 83/1/2 87/1/2
f 87/1/2 84/1/2 88/1/2
f 86/1/2 74/1/2 89/1/2
f 89/1/2 74/1/2 90/1/2
f 75/1/2 87/1/2 91/1/2
f 91/1/2 87/1/2 92/1/2
f 93/6/2 94/6/2 97/6/2
f 97/6/2 94/6/2 98/6/2
f 95/6/2 96/6/2 99/6/2
f 99/6/2 96/6/2 100/6/2
f 101/5/2 102/5/2 103/5/2
f 103/5/2 102/5/2 104/5/2
f 105/5/2 106/5/2 107/5/2
f 107/5/2 106/5/2 108/5/2
f 109/5/2 110/5/2 111/5/2
f 111/5/2 110/5/2 112/5/2
f 113/5/2 114/5/2 115/5/2
f 115/5/2 114/5/2 116/5/2
f 117/5/2 118/5/2 119/5/2
f 119/5/2 118/5/2 120/5/2
f 121/5/2 122/5/2 123/5/2
f 123/5/2 122/5/2 124/5/2
f 125/5/2 126/5/2 127/5/2
f 127/5/2 126/5/2 128/5/2
f 129/5/2 130/5/2 131/5/2
f 131/5/2 130/5/2 132/5/2
f 133/5/2 134/5/2 135/5/2
f 135/5/2 134/5/2 136/5/2
f 141/1/3 138/1/3 137/1/3
f 142/1/3 138/1/3 141/1/3
f 143/1/3 140/1/3 139/1/3
f 144/1/3 140/1/3 143/1/3
f 148/6/3 146/6/3 145/6/3
f 148/8/3 147/8/3 146/8/3
f 149/8/3 147/8/3 148/8/3
f 150/7/3 149/7/3 148/7/3
f 150/8/3 147/8/3 149/8/3
f 151/8/3 147/8/3 150/8/3
f 156/1/3 155/1/3 154/1/3
f 157/1/3 155/1/3 156/1/3
f 158/1/3 156/1/3 154/1/3
f 159/1/3 155/1/3 157/1/3
f 160/1/3 158/1/3 154/1/3
f 160/1/3 159/1/3 158/1/3
f 161/1/3 155/1/3 159/1/3
f 161/1/3 159/1/3 160/1/3
f 162/1/3 160/1/3 154/1/3
f 162/2/3 161/2/3 160/2/3
f 163/1/3 155/1/3 161/1/3
f 163/2/3 161/2/3 162/2/3
f 164/1/3 153/1/3 152/1/3
f 165/1/3 153/1/3 164/1/3
f 166/1/3 162/1/3 154/1/3
f 166/1/3 163/1/3 162/1/3
f 167/1/3 155/1/3 163/1/3
f 167/1/3 163/1/3 166/1/3
f 168/6/3 148/6/3 145/6/3
f 168/7/3 150/7/3 148/7/3
f 168/7/3 151/7/3 150/7/3
f 169/7/3 151/7/3 168/7/3
f 170/6/3 169/6/3 168/6/3
f 170/7/3 151/7/3 169/7/3
f 171/8/3 147/8/3 151/8/3
f 171/7/3 151/7/3 170/7/3
f 172/8/3 147/8/3 171/8/3
f 173/6/3 170/6/3 168/6/3
f 173/6/3 168/6/3 145/6/3
f 173/6/3 172/6/3 171/6/3
f 173/6/3 171/6/3 170/6/3
f 174/6/3 172/6/3 173/6/3
f 178/3/3 177/3/3 176/3/3
f 179/3/3 177/3/3 178/3/3
f 180/3/3 177/3/3 179/3/3
f 181/5/3 176/5/3 175/5/3
f 181/3/3 178/3/3 176/3/3
f 182/3/3 178/3/3 181/3/3
f 183/3/3 178/3/3 182/3/3
f 184/3/3 177/3/3 180/3/3
f 185/3/3 177/3/3 184/3/3
f 186/4/3 185/4/3 184/4/3
f 187/4/3 185/4/3 186/4/3
f 188/3/3 177/3/3 185/3/3
f 188/4/3 185/4/3 187/4/3
f 189/3/3 177/3/3 188/3/3
f 197/3/3 177/3/3 189/3/3
f 197/4/3 188/4/3 187/4/3
f 197/4/3 189/4/3 188/4/3
f 198/3/3 177/3/3 197/3/3
f 199/5/3 191/5/3 190/5/3
f 200/6/3 192/6/3 191/6/3
f 200/5/3 191/5/3 199/5/3
f 201/7/3 193/7/3 192/7/3
f 201/6/3 192/6/3 200/6/3
f 202/3/3 194/3/3 193/3/3
f 202/7/3 193/7/3 201/7/3
f 203/5/3 195/5/3 194/5/3
f 203/3/3 194/3/3 202/3/3
f 204/6/3 196/6/3 195/6/3
f 204/5/3 195/5/3 203/5/3
f 205/6/3 200/6/3 199/6/3
f 206/7/3 201/7/3 200/7/3
f 206/6/3 200/6/3 205/6/3
f 207/3/3 202/3/3 201/3/3
f 207/7/3 201/7/3 206/7/3
f 208/6/3 203/6/3 202/6/3
f 208/3/3 202/3/3 207/3/3
f 209/7/3 204/7/3 203/7/3
f 209/6/3 203/6/3 208/6/3
f 210/6/3 196/6/3 204/6/3
f 210/7/3 204/7/3 209/7/3
f 211/6/3 196/6/3 210/6/3
f 212/3/3 177/3/3 198/3/3
f 212/4/3 198/4/3 197/4/3
f 213/3/3 177/3/3 212/3/3
f 214/4/3 207/4/3 206/4/3
f 214/5/3 206/5/3 205/5/3
f 215/7/3 208/7/3 207/7/3
f 215/4/3 207/4/3 214/4/3
f 216/4/3 209/4/3 208/4/3
f 216/7/3 208/7/3 215/7/3
f 217/6/3 210/6/3 209/6/3
f 217/4/3 209/4/3 216/4/3
f 218/7/3 211/7/3 210/7/3
f 218/6/3 210/6/3 217/6/3
f 219/5/3 214/5/3 205/5/3
f 220/6/3 215/6/3 214/6/3
f 220/5/3 214/5/3 219/5/3
f 221/4/3 216/4/3 215/4/3
f 221/6/3 215/6/3 220/6/3
f 222/5/3 217/5/3 216/5/3
f 222/4/3 216/4/3 221/4/3
f 222/5/3 218/5/3 217/5/3
f 223/7/3 211/7/3 218/7/3
f 223/5/3 218/5/3 222/5/3
f 224/7/3 211/7/3 223/7/3
f 225/3/3 177/3/3 213/3/3
f 225/4/3 213/4/3 212/4/3
f 226/3/3 177/3/3 225/3/3
f 227/4/3 186/4/3 184/4/3
f 228/4/3 212/4/3 197/4/3
f 228/4/3 197/4/3 187/4/3
f 228/4/3 226/4/3 225/4/3
f 228/4/3 225/4/3 212/4/3
f 229/5/3 181/5/3 175/5/3
f 229/4/3 182/4/3 181/4/3
f 230/4/3 182/4/3 229/4/3
f 231/5/3 230/5/3 229/5/3
f 231/4/3 182/4/3 230/4/3
f 232/4/3 182/4/3 231/4/3
f 233/5/3 232/5/3 231/5/3
f 233/4/3 182/4/3 232/4/3
f 234/4/3 182/4/3 233/4/3
f 235/5/3 234/5/3 233/5/3
f 235/4/3 182/4/3 234/4/3
f 236/4/3 182/4/3 235/4/3
f 237/5/3 236/5/3 235/5/3
f 237/4/3 182/4/3 236/4/3
f 238/4/3 182/4/3 237/4/3
f 239/4/3 228/4/3 227/4/3
f 239/4/3 227/4/3 184/4/3
f 240/4/3 182/4/3 238/4/3
f 240/5/3 238/5/3 237/5/3
f 241/5/3 183/5/3 182/5/3
f 241/4/3 182/4/3 240/4/3
f 242/5/3 183/5/3 241/5/3
f 243/4/3 228/4/3 239/4/3
f 244/4/3 226/4/3 228/4/3
f 244/3/3 177/3/3 226/3/3
f 244/4/3 228/4/3 243/4/3
f 245/3/3 177/3/3 244/3/3
f 246/5/3 240/5/3 237/5/3
f 246/5/3 242/5/3 241/5/3
f 246/5/3 245/5/3 244/5/3
f 246/5/3 244/5/3 243/5/3
f 246/5/3 241/5/3 240/5/3
f 246/5/3 237/5/3 235/5/3
f 246/5/3 235/5/3 233/5/3
f 246/5/3 233/5/3 231/5/3
f 246/5/3 231/5/3 229/5/3
f 246/5/3 229/5/3 175/5/3
f 246/5/3 243/5/3 242/5/3
f 247/5/3 245/5/3 246/5/3
f 248/5/3 245/5/3 247/5/3
f 249/5/3 245/5/3 248/5/3
f 250/5/3 245/5/3 249/5/3
f 251/5/3 245/5/3 250/5/3
f 252/5/3 245/5/3 251/5/3
f 253/5/3 245/5/3 252/5/3
f 254/5/3 245/5/3 253/5/3
f 255/5/3 245/5/3 254/5/3
f 256/5/3 248/5/3 247/5/3
f 257/5/3 248/5/3 256/5/3
f 258/5/3 250/5/3 249/5/3
f 259/5/3 250/5/3 258/5/3
f 260/5/3 252/5/3 251/5/3
f 261/5/3 252/5/3 260/5/3
f 262/5/3 254/5/3 253/5/3
f 263/5/3 254/5/3 262/5/3
f 265/3/4 266/3/4 267/3/4
f 267/3/4 266/3/4 268/3/4
f 268/3/4 266/3/4 269/3/4
f 264/5/4 265/5/4 270/5/4
f 265/3/4 267/3/4 270/3/4
f 270/3/4 267/3/4 271/3/4
f 271/3/4 267/3/4 272/3/4
f 269/3/4 266/3/4 273/3/4
f 273/3/4 266/3/4 274/3/4
f 273/4/4 274/4/4 275/4/4
f 275/4/4 274/4/4 276/4/4
f 274/3/4 266/3/4 277/3/4
f 276/4/4 274/4/4 277/4/4
f 277/3/4 266/3/4 278/3/4
f 278/3/4 266/3/4 286/3/4
f 276/4/4 277/4/4 286/4/4
f 277/4/4 278/4/4 286/4/4
f 286/3/4 266/3/4 287/3/4
f 279/5/4 280/5/4 288/5/4
f 280/6/4 281/6/4 289/6/4
f 288/5/4 280/5/4 289/5/4
f 281/7/4 282/7/4 290/7/4
f 289/6/4 281/6/4 290/6/4
f 282/3/4 283/3/4 291/3/4
f 290/7/4 282/7/4 291/7/4
f 283/5/4 284/5/4 292/5/4
f 291/3/4 283/3/4 292/3/4
f 284/6/4 285/6/4 293/6/4
f 292/5/4 284/5/4 293/5/4
f 288/6/4 289/6/4 294/6/4
f 289/7/4 290/7/4 295/7/4
f 294/6/4 289/6/4 295/6/4
f 290/3/4 291/3/4 296/3/4
f 295/7/4 290/7/4 296/7/4
f 291/6/4 292/6/4 297/6/4
f 296/3/4 291/3/4 297/3/4
f 292/7/4 293/7/4 298/7/4
f 297/6/4 292/6/4 298/6/4
f 293/6/4 285/6/4 299/6/4
f 298/7/4 293/7/4 299/7/4
f 299/6/4 285/6/4 300/6/4
f 287/3/4 266/3/4 301/3/4
f 286/4/4 287/4/4 301/4/4
f 301/3/4 266/3/4 302/3/4
f 295/4/4 296/4/4 303/4/4
f 294/5/4 295/5/4 303/5/4
f 296/7/4 297/7/4 304/7/4
f 303/4/4 296/4/4 304/4/4
f 297/4/4 298/4/4 305/4/4
f 304/7/4 297/7/4 305/7/4
f 298/6/4 299/6/4 306/6/4
f 305/4/4 298/4/4 306/4/4
f 299/7/4 300/7/4 307/7/4
f 306/6/4 299/6/4 307/6/4
f 294/5/4 303/5/4 308/5/4
f 303/6/4 304/6/4 309/6/4
f 308/5/4 303/5/4 309/5/4
f 304/4/4 305/4/4 310/4/4
f 309/6/4 304/6/4 310/6/4
f 305/5/4 306/5/4 311/5/4
f 310/4/4 305/4/4 311/4/4
f 306/5/4 307/5/4 311/5/4
f 307/7/4 300/7/4 312/7/4
f 311/5/4 307/5/4 312/5/4
f 312/7/4 300/7/4 313/7/4
f 302/3/4 266/3/4 314/3/4
f 301/4/4 302/4/4 314/4/4
f 314/3/4 266/3/4 315/3/4
f 273/4/4 275/4/4 316/4/4
f 286/4/4 301/4/4 317/4/4
f 276/4/4 286/4/4 317/4/4
f 314/4/4 315/4/4 317/4/4
f 301/4/4 314/4/4 317/4/4
f 264/5/4 270/5/4 318/5/4
f 270/4/4 271/4/4 318/4/4
f 318/4/4 271/4/4 319/4/4
f 318/5/4 319/5/4 320/5/4
f 319/4/4 271/4/4 320/4/4
f 320/4/4 271/4/4 321/4/4
f 320/5/4 321/5/4 322/5/4
f 321/4/4 271/4/4 322/4/4
f 322/4/4 271/4/4 323/4/4
f 322/5/4 323/5/4 324/5/4
f 323/4/4 271/4/4 324/4/4
f 324/4/4 271/4/4 325/4/4
f 324/5/4 325/5/4 326/5/4
f 325/4/4 271/4/4 326/4/4
f 326/4/4 271/4/4 327/4/4
f 316/4/4 317/4/4 328/4/4
f 273/4/4 316/4/4 328/4/4
f 327/4/4 271/4/4 329/4/4
f 326/5/4 327/5/4 329/5/4
f 271/5/4 272/5/4 330/5/4
f 329/4/4 271/4/4 330/4/4
f 330/5/4 272/5/4 331/5/4
f 328/4/4 317/4/4 332/4/4
f 317/4/4 315/4/4 333/4/4
f 315/3/4 266/3/4 333/3/4
f 332/4/4 317/4/4 333/4/4
f 333/3/4 266/3/4 334/3/4
f 326/5/4 329/5/4 335/5/4
f 330/5/4 331/5/4 335/5/4
f 333/5/4 334/5/4 335/5/4
f 332/5/4 333/5/4 335/5/4
f 329/5/4 330/5/4 335/5/4
f 324/5/4 326/5/4 335/5/4
f 322/5/4 324/5/4 335/5/4
f 320/5/4 322/5/4 335/5/4
f 318/5/4 320/5/4 335/5/4
f 264/5/4 318/5/4 335/5/4
f 331/5/4 332/5/4 335/5/4
f 335/5/4 334/5/4 336/5/4
f 336/5/4 334/5/4 337/5/4
f 337/5/4 334/5/4 338/5/4
f 338/5/4 334/5/4 339/5/4
f 339/5/4 334/5/4 340/5/4
f 340/5/4 334/5/4 341/5/4
f 341/5/4 334/5/4 342/5/4
f 342/5/4 334/5/4 343/5/4
f 343/5/4 334/5/4 344/5/4
f 336/5/4 337/5/4 345/5/4
f 345/5/4 337/5/4 346/5/4
f 338/5/4 339/5/4 347/5/4
f 347/5/4 339/5/4 348/5/4
f 340/5/4 341/5/4 349/5/4
f 349/5/4 341/5/4 350/5/4
f 342/5/4 343/5/4 351/5/4
f 351/5/4 343/5/4 352/5/4
f 353/6/4 354/6/4 356/6/4
f 354/8/4 355/8/4 356/8/4
f 356/8/4 355/8/4 357/8/4
f 356/7/4 357/7/4 358/7/4
f 357/8/4 355/8/4 358/8/4
f 358/8/4 355/8/4 359/8/4
f 362/1/4 363/1/4 364/1/4
f 364/1/4 363/1/4 365/1/4
f 362/1/4 364/1/4 366/1/4
f 365/1/4 363/1/4 367/1/4
f 362/1/4 366/1/4 368/1/4
f 366/1/4 367/1/4 368/1/4
f 367/1/4 363/1/4 369/1/4
f 368/1/4 367/1/4 369/1/4
f 362/1/4 368/1/4 370/1/4
f 368/2/4 369/2/4 370/2/4
f 369/1/4 363/1/4 371/1/4
f 370/2/4 369/2/4 371/2/4
f 360/1/4 361/1/4 372/1/4
f 372/1/4 361/1/4 373/1/4
f 362/1/4 370/1/4 374/1/4
f 370/1/4 371/1/4 374/1/4
f 371/1/4 363/1/4 375/1/4
f 374/1/4 371/1/4 375/1/4
f 353/6/4 356/6/4 376/6/4
f 356/7/4 358/7/4 376/7/4
f 358/7/4 359/7/4 376/7/4
f 376/7/4 359/7/4 377/7/4
f 376/6/4 377/6/4 378/6/4
f 377/7/4 359/7/4 378/7/4
f 359/8/4 355/8/4 379/8/4
f 378/7/4 359/7/4 379/7/4
f 379/8/4 355/8/4 380/8/4
f 376/6/4 378/6/4 381/6/4
f 353/6/4 376/6/4 381/6/4
f 379/6/4 380/6/4 381/6/4
f 378/6/4 379/6/4 381/6/4
f 381/6/4 380/6/4 382/6/4
f 383/1/4 384/1/4 387/1/4
f 387/1/4 384/1/4 388/1/4
f 385/1/4 386/1/4 389/1/4
f 389/1/4 386/1/4 390/1/4
f 393/5/5 392/5/5 391/5/5
f 394/5/5 392/5/5 393/5/5
f 397/5/5 396/5/5 395/5/5
f 398/5/5 396/5/5 397/5/5
f 401/5/5 400/5/5 399/5/5
f 402/5/5 400/5/5 401/5/5
f 405/6/5 404/6/5 403/6/5
f 406/6/5 404/6/5 405/6/5
f 407/6/5 404/6/5 406/6/5
f 411/6/5 409/6/5 408/6/5
f 411/6/5 410/6/5 409/6/5
f 412/6/5 410/6/5 411/6/5
f 415/1/5 414/1/5 413/1/5
f 416/1/5 414/1/5 415/1/5
f 419/1/5 418/1/5 417/1/5
f 420/1/5 418/1/5 419/1/5
f 423/1/5 422/1/5 421/1/5
f 424/1/5 422/1/5 423/1/5
f 427/1/5 426/1/5 425/1/5
f 428/1/5 426/1/5 427/1/5
f 431/1/5 430/1/5 429/1/5
f 432/1/5 430/1/5 431/1/5
f 433/1/5 430/1/5 432/1/5
f 437/1/5 435/1/5 434/1/5
f 437/1/5 436/1/5 435/1/5
f 438/1/5 436/1/5 437/1/5
f 441/5/5 440/5/5 439/5/5
f 442/5/5 440/5/5 441/5/5
f 445/5/5 444/5/5 443/5/5
f 446/5/5 444/5/5 445/5/5
f 447/5/6 448/5/6 449/5/6
f 449/5/6 448/5/6 450/5/6
f 451/5/6 452/5/6 453/5/6
f 453/5/6 452/5/6 454/5/6
f 455/8/6 456/8/6 458/8/6
f 458/8/6 456/8/6 459/8/6
f 456/6/6 457/6/6 460/6/6
f 459/8/6 456/8/6 460/8/6
f 460/6/6 457/6/6 461/6/6
f 462/8/6 463/8/6 466/8/6
f 463/8/6 464/8/6 466/8/6
f 464/6/6 465/6/6 467/6/6
f 466/8/6 464/8/6 467/8/6
f 467/6/6 465/6/6 468/6/6
f 469/1/6 470/1/6 471/1/6
f 471/1/6 470/1/6 472/1/6
f 473/1/6 474/1/6 475/1/6
f 475/1/6 474/1/6 476/1/6
f 477/1/6 478/1/6 479/1/6
f 479/1/6 478/1/6 480/1/6
f 481/1/6 482/1/6 483/1/6
f 483/1/6 482/1/6 484/1/6
f 485/1/6 486/1/6 487/1/6
f 487/1/6 486/1/6 488/1/6
f 488/1/6 486/1/6 489/1/6
f 489/1/6 486/1/6 490/1/6
f 491/1/6 492/1/6 495/1/6
f 493/1/6 494/1/6 495/1/6
f 492/1/6 493/1/6 495/1/6
f 495/1/6 494/1/6 496/1/6
f 497/1/6 498/1/6 499/1/6
f 499/1/6 498/1/6 500/1/6
f 501/1/6 502/1/6 503/1/6
f 503/1/6 502/1/6 504/1/6
f 505/5/6 506/5/6 507/5/6
f 507/5/6 506/5/6 508/5/6
f 509/5/6 510/5/6 511/5/6
f 511/5/6 510/5/6 512/5/6
f 513/3/6 514/3/6 516/3/6
f 514/5/6 515/5/6 517/5/6
f 516/3/6 514/3/6 517/3/6
f 517/5/6 515/5/6 518/5/6
