# MagicaVoxel @ Ephtracy

# group
o 

# material
mtllib stack of cash.mtl
usemtl palette

# normals
vn -1 0 0
vn 1 0 0
vn 0 0 1
vn 0 0 -1
vn 0 -1 0
vn 0 1 0

# texcoords
vt 0.0292969 0.5
vt 0.158203 0.5
vt 0.603516 0.5
vt 0.607422 0.5

# verts
v -0.4 0 -0.2
v -0.4 0 -0.5
v -0.4 0.1 -0.2
v -0.4 0.1 -0.5
v -0.4 0.2 -0.2
v -0.4 0.2 -0.3
v -0.4 0.2 -0.4
v -0.4 0.2 -0.5
v -0.4 0.3 -0.2
v -0.4 0.3 -0.3
v -0.4 0.3 -0.4
v -0.4 0.3 -0.5
v -0.2 0 0.3
v -0.2 0 0.1
v -0.2 0.1 0.3
v -0.2 0.1 0.1
v -0.2 0.1 0
v -0.2 0.2 0.3
v -0.2 0.2 0.2
v -0.2 0.2 0.1
v -0.2 0.2 0
v -0.2 0.2 -0.1
v -0.2 0.2 -0.2
v -0.2 0.3 0.3
v -0.2 0.3 0.2
v -0.2 0.3 0.1
v -0.2 0.3 0
v -0.2 0.3 -0.1
v -0.2 0.3 -0.2
v -0.2 0.3 -0.3
v -0.2 0.3 -0.4
v -0.2 0.4 0.1
v -0.2 0.4 0
v -0.2 0.4 -0.1
v -0.2 0.4 -0.2
v -0.2 0.4 -0.3
v -0.2 0.4 -0.4
v -0.2 0.5 0
v -0.2 0.5 -0.1
v -0.2 0.5 -0.2
v -0.2 0.5 -0.3
v -0.2 0.5 -0.4
v -0.2 0.6 -0.2
v -0.2 0.6 -0.3
v -0.2 0.6 -0.4
v 0.1 0 0.3
v 0.1 0 0.2
v 0.1 0 0.1
v 0.1 0.1 0.3
v 0.1 0.1 0.2
v 0.1 0.1 0.1
v 0.1 0.1 0
v 0.1 0.2 0.3
v 0.1 0.2 0.1
v 0.1 0.2 0
v 0.1 0.2 -0.1
v 0.1 0.2 -0.2
v 0.1 0.3 0.3
v 0.1 0.3 0.1
v 0.1 0.3 0
v 0.1 0.3 -0.1
v 0.1 0.3 -0.2
v 0.1 0.3 -0.3
v 0.1 0.3 -0.4
v 0.1 0.4 0.1
v 0.1 0.4 0
v 0.1 0.4 -0.1
v 0.1 0.4 -0.2
v 0.1 0.4 -0.4
v 0.1 0.5 0
v 0.1 0.5 -0.1
v 0.1 0.5 -0.2
v 0.1 0.5 -0.3
v 0.1 0.5 -0.4
v 0.1 0.6 -0.2
v 0.1 0.6 -0.3
v 0.1 0.6 -0.4
v 0.3 0 -0.2
v 0.3 0 -0.5
v 0.3 0.1 -0.2
v 0.3 0.1 -0.5
v 0.3 0.2 -0.2
v 0.3 0.2 -0.4
v 0.3 0.2 -0.5
v 0.3 0.3 -0.2
v 0.3 0.3 -0.4
v 0.3 0.3 -0.5
v -0.2 0 0.3
v -0.2 0.1 0.3
v -0.2 0.2 0.3
v -0.2 0.3 0.3
v -0.1 0.2 0.3
v -0.1 0.3 0.3
v 0 0.2 0.3
v 0 0.3 0.3
v 0.1 0 0.3
v 0.1 0.1 0.3
v 0.1 0.2 0.3
v 0.1 0.3 0.3
v -0.2 0.3 0.1
v -0.2 0.4 0.1
v 0 0.3 0.1
v 0 0.4 0.1
v 0.1 0.3 0.1
v 0.1 0.4 0.1
v -0.2 0.4 0
v -0.2 0.5 0
v 0 0.4 0
v 0.1 0.4 0
v 0.1 0.5 0
v -0.4 0 -0.2
v -0.4 0.1 -0.2
v -0.4 0.2 -0.2
v -0.4 0.3 -0.2
v -0.3 0 -0.2
v -0.3 0.1 -0.2
v -0.2 0 -0.2
v -0.2 0.1 -0.2
v -0.2 0.2 -0.2
v -0.2 0.3 -0.2
v -0.2 0.5 -0.2
v -0.2 0.6 -0.2
v -0.1 0 -0.2
v -0.1 0.1 -0.2
v -0.1 0.2 -0.2
v -0.1 0.5 -0.2
v -0.1 0.6 -0.2
v 0 0 -0.2
v 0 0.1 -0.2
v 0 0.2 -0.2
v 0 0.5 -0.2
v 0.1 0 -0.2
v 0.1 0.1 -0.2
v 0.1 0.2 -0.2
v 0.1 0.3 -0.2
v 0.1 0.5 -0.2
v 0.1 0.6 -0.2
v 0.3 0 -0.2
v 0.3 0.1 -0.2
v 0.3 0.2 -0.2
v 0.3 0.3 -0.2
v -0.2 0 0.1
v -0.2 0.1 0.1
v -0.1 0 0.1
v -0.1 0.1 0.1
v 0.1 0 0.1
v 0.1 0.1 0.1
v -0.2 0.1 0
v -0.2 0.2 0
v -0.1 0.1 0
v -0.1 0.2 0
v 0.1 0.1 0
v 0.1 0.2 0
v -0.2 0.3 -0.4
v -0.2 0.4 -0.4
v -0.2 0.5 -0.4
v -0.2 0.6 -0.4
v -0.1 0.3 -0.4
v -0.1 0.5 -0.4
v -0.1 0.6 -0.4
v 0 0.3 -0.4
v 0 0.4 -0.4
v 0.1 0.3 -0.4
v 0.1 0.4 -0.4
v 0.1 0.5 -0.4
v 0.1 0.6 -0.4
v -0.4 0 -0.5
v -0.4 0.1 -0.5
v -0.4 0.2 -0.5
v -0.4 0.3 -0.5
v -0.2 0.2 -0.5
v -0.2 0.3 -0.5
v -0.1 0 -0.5
v -0.1 0.1 -0.5
v -0.1 0.2 -0.5
v -0.1 0.3 -0.5
v 0 0 -0.5
v 0 0.1 -0.5
v 0 0.2 -0.5
v 0 0.3 -0.5
v 0.1 0 -0.5
v 0.1 0.1 -0.5
v 0.3 0 -0.5
v 0.3 0.1 -0.5
v 0.3 0.2 -0.5
v 0.3 0.3 -0.5
v -0.2 0 0.3
v 0.1 0 0.3
v -0.1 0 0.2
v 0.1 0 0.2
v -0.2 0 0.1
v -0.1 0 0.1
v 0.1 0 0.1
v -0.4 0 -0.2
v -0.3 0 -0.2
v -0.2 0 -0.2
v -0.1 0 -0.2
v 0 0 -0.2
v 0.1 0 -0.2
v 0.3 0 -0.2
v -0.2 0 -0.3
v -0.1 0 -0.3
v 0.1 0 -0.3
v 0.2 0 -0.3
v -0.3 0 -0.4
v -0.1 0 -0.4
v 0.1 0 -0.4
v 0.2 0 -0.4
v -0.4 0 -0.5
v -0.1 0 -0.5
v 0 0 -0.5
v 0.1 0 -0.5
v 0.3 0 -0.5
v -0.2 0.1 0.1
v -0.1 0.1 0.1
v 0.1 0.1 0.1
v -0.2 0.1 0
v -0.1 0.1 0
v 0.1 0.1 0
v -0.2 0.2 0
v -0.1 0.2 0
v 0.1 0.2 0
v -0.2 0.2 -0.1
v -0.1 0.2 -0.1
v 0.1 0.2 -0.1
v -0.2 0.2 -0.2
v -0.1 0.2 -0.2
v 0 0.2 -0.2
v 0.1 0.2 -0.2
v -0.2 0.3 0.3
v -0.1 0.3 0.3
v 0 0.3 0.3
v 0.1 0.3 0.3
v -0.2 0.3 0.2
v -0.1 0.3 0.2
v -0.2 0.3 0.1
v 0 0.3 0.1
v 0.1 0.3 0.1
v -0.4 0.3 -0.2
v -0.2 0.3 -0.2
v 0.1 0.3 -0.2
v 0.3 0.3 -0.2
v -0.4 0.3 -0.3
v -0.2 0.3 -0.3
v 0.1 0.3 -0.3
v 0.2 0.3 -0.3
v -0.4 0.3 -0.4
v -0.2 0.3 -0.4
v -0.1 0.3 -0.4
v 0 0.3 -0.4
v 0.1 0.3 -0.4
v 0.2 0.3 -0.4
v 0.3 0.3 -0.4
v -0.4 0.3 -0.5
v -0.2 0.3 -0.5
v -0.1 0.3 -0.5
v 0 0.3 -0.5
v 0.3 0.3 -0.5
v -0.2 0.4 0.1
v 0 0.4 0.1
v 0.1 0.4 0.1
v -0.2 0.4 0
v 0 0.4 0
v 0.1 0.4 0
v -0.2 0.5 0
v 0.1 0.5 0
v -0.2 0.5 -0.1
v 0 0.5 -0.1
v 0.1 0.5 -0.1
v -0.2 0.5 -0.2
v -0.1 0.5 -0.2
v 0 0.5 -0.2
v 0.1 0.5 -0.2
v -0.2 0.6 -0.2
v -0.1 0.6 -0.2
v 0.1 0.6 -0.2
v -0.2 0.6 -0.3
v -0.1 0.6 -0.3
v 0.1 0.6 -0.3
v -0.2 0.6 -0.4
v -0.1 0.6 -0.4
v 0.1 0.6 -0.4

# faces
f 3/3/1 2/3/1 1/3/1
f 4/3/1 2/3/1 3/3/1
f 5/4/1 4/4/1 3/4/1
f 6/4/1 4/4/1 5/4/1
f 7/4/1 4/4/1 6/4/1
f 8/4/1 4/4/1 7/4/1
f 9/3/1 6/3/1 5/3/1
f 10/1/1 7/1/1 6/1/1
f 10/3/1 6/3/1 9/3/1
f 11/3/1 8/3/1 7/3/1
f 11/1/1 7/1/1 10/1/1
f 12/3/1 8/3/1 11/3/1
f 15/3/1 14/3/1 13/3/1
f 16/3/1 14/3/1 15/3/1
f 18/4/1 16/4/1 15/4/1
f 19/4/1 16/4/1 18/4/1
f 20/3/1 17/3/1 16/3/1
f 20/4/1 16/4/1 19/4/1
f 21/3/1 17/3/1 20/3/1
f 24/3/1 19/3/1 18/3/1
f 25/1/1 20/1/1 19/1/1
f 25/3/1 19/3/1 24/3/1
f 26/4/1 21/4/1 20/4/1
f 26/1/1 20/1/1 25/1/1
f 27/2/1 22/2/1 21/2/1
f 27/4/1 21/4/1 26/4/1
f 28/3/1 23/3/1 22/3/1
f 28/2/1 22/2/1 27/2/1
f 29/3/1 23/3/1 28/3/1
f 32/1/1 27/1/1 26/1/1
f 33/2/1 28/2/1 27/2/1
f 33/1/1 27/1/1 32/1/1
f 34/4/1 29/4/1 28/4/1
f 34/2/1 28/2/1 33/2/1
f 35/3/1 30/3/1 29/3/1
f 35/4/1 29/4/1 34/4/1
f 36/1/1 31/1/1 30/1/1
f 36/3/1 30/3/1 35/3/1
f 37/1/1 31/1/1 36/1/1
f 38/2/1 34/2/1 33/2/1
f 39/1/1 35/1/1 34/1/1
f 39/2/1 34/2/1 38/2/1
f 40/4/1 37/4/1 36/4/1
f 40/1/1 35/1/1 39/1/1
f 40/4/1 36/4/1 35/4/1
f 41/4/1 37/4/1 40/4/1
f 42/4/1 37/4/1 41/4/1
f 43/1/1 41/1/1 40/1/1
f 44/3/1 42/3/1 41/3/1
f 44/1/1 41/1/1 43/1/1
f 45/3/1 42/3/1 44/3/1
f 46/3/2 47/3/2 49/3/2
f 47/1/2 48/1/2 50/1/2
f 49/3/2 47/3/2 50/3/2
f 50/1/2 48/1/2 51/1/2
f 49/4/2 50/4/2 53/4/2
f 50/4/2 51/4/2 53/4/2
f 51/1/2 52/1/2 54/1/2
f 53/4/2 51/4/2 54/4/2
f 54/1/2 52/1/2 55/1/2
f 53/3/2 54/3/2 58/3/2
f 54/4/2 55/4/2 59/4/2
f 58/3/2 54/3/2 59/3/2
f 55/2/2 56/2/2 60/2/2
f 59/4/2 55/4/2 60/4/2
f 56/1/2 57/1/2 61/1/2
f 60/2/2 56/2/2 61/2/2
f 61/1/2 57/1/2 62/1/2
f 59/3/2 60/3/2 65/3/2
f 60/2/2 61/2/2 66/2/2
f 65/3/2 60/3/2 66/3/2
f 61/4/2 62/4/2 67/4/2
f 66/2/2 61/2/2 67/2/2
f 63/3/2 64/3/2 68/3/2
f 67/4/2 62/4/2 68/4/2
f 62/3/2 63/3/2 68/3/2
f 68/3/2 64/3/2 69/3/2
f 66/2/2 67/2/2 70/2/2
f 67/3/2 68/3/2 71/3/2
f 70/2/2 67/2/2 71/2/2
f 68/4/2 69/4/2 72/4/2
f 71/3/2 68/3/2 72/3/2
f 72/4/2 69/4/2 73/4/2
f 73/4/2 69/4/2 74/4/2
f 72/3/2 73/3/2 75/3/2
f 73/1/2 74/1/2 76/1/2
f 75/3/2 73/3/2 76/3/2
f 76/1/2 74/1/2 77/1/2
f 78/1/2 79/1/2 80/1/2
f 80/1/2 79/1/2 81/1/2
f 80/4/2 81/4/2 82/4/2
f 82/4/2 81/4/2 83/4/2
f 83/4/2 81/4/2 84/4/2
f 82/1/2 83/1/2 85/1/2
f 83/3/2 84/3/2 86/3/2
f 85/1/2 83/1/2 86/1/2
f 86/3/2 84/3/2 87/3/2
f 92/4/3 90/4/3 89/4/3
f 92/3/3 91/3/3 90/3/3
f 93/3/3 91/3/3 92/3/3
f 94/4/3 92/4/3 89/4/3
f 94/1/3 93/1/3 92/1/3
f 95/1/3 93/1/3 94/1/3
f 96/3/3 89/3/3 88/3/3
f 97/4/3 94/4/3 89/4/3
f 97/3/3 89/3/3 96/3/3
f 98/3/3 95/3/3 94/3/3
f 98/4/3 94/4/3 97/4/3
f 99/3/3 95/3/3 98/3/3
f 102/1/3 101/1/3 100/1/3
f 103/1/3 101/1/3 102/1/3
f 104/3/3 103/3/3 102/3/3
f 105/3/3 103/3/3 104/3/3
f 108/2/3 107/2/3 106/2/3
f 109/2/3 107/2/3 108/2/3
f 110/2/3 107/2/3 109/2/3
f 115/3/3 112/3/3 111/3/3
f 116/4/3 113/4/3 112/4/3
f 116/3/3 112/3/3 115/3/3
f 117/1/3 116/1/3 115/1/3
f 118/4/3 113/4/3 116/4/3
f 118/1/3 116/1/3 117/1/3
f 119/3/3 114/3/3 113/3/3
f 119/4/3 113/4/3 118/4/3
f 120/3/3 114/3/3 119/3/3
f 123/3/3 118/3/3 117/3/3
f 124/4/3 119/4/3 118/4/3
f 124/3/3 118/3/3 123/3/3
f 125/4/3 119/4/3 124/4/3
f 126/1/3 122/1/3 121/1/3
f 127/1/3 122/1/3 126/1/3
f 128/2/3 125/2/3 124/2/3
f 128/2/3 124/2/3 123/2/3
f 129/2/3 125/2/3 128/2/3
f 130/2/3 125/2/3 129/2/3
f 131/3/3 127/3/3 126/3/3
f 132/3/3 129/3/3 128/3/3
f 133/4/3 130/4/3 129/4/3
f 133/3/3 129/3/3 132/3/3
f 134/4/3 130/4/3 133/4/3
f 136/3/3 127/3/3 131/3/3
f 137/3/3 127/3/3 136/3/3
f 138/1/3 133/1/3 132/1/3
f 139/4/3 134/4/3 133/4/3
f 139/1/3 133/1/3 138/1/3
f 140/1/3 135/1/3 134/1/3
f 140/4/3 134/4/3 139/4/3
f 141/1/3 135/1/3 140/1/3
f 142/3/4 143/3/4 144/3/4
f 144/3/4 143/3/4 145/3/4
f 144/1/4 145/1/4 146/1/4
f 146/1/4 145/1/4 147/1/4
f 148/3/4 149/3/4 150/3/4
f 150/3/4 149/3/4 151/3/4
f 150/1/4 151/1/4 152/1/4
f 152/1/4 151/1/4 153/1/4
f 154/1/4 155/1/4 158/1/4
f 156/3/4 157/3/4 159/3/4
f 155/4/4 156/4/4 159/4/4
f 159/3/4 157/3/4 160/3/4
f 158/1/4 155/1/4 161/1/4
f 155/4/4 159/4/4 162/4/4
f 161/1/4 155/1/4 162/1/4
f 161/3/4 162/3/4 163/3/4
f 162/4/4 159/4/4 164/4/4
f 163/3/4 162/3/4 164/3/4
f 159/1/4 160/1/4 165/1/4
f 164/4/4 159/4/4 165/4/4
f 165/1/4 160/1/4 166/1/4
f 168/4/4 169/4/4 171/4/4
f 169/3/4 170/3/4 171/3/4
f 171/3/4 170/3/4 172/3/4
f 167/3/4 168/3/4 173/3/4
f 168/4/4 171/4/4 174/4/4
f 173/3/4 168/3/4 174/3/4
f 171/1/4 172/1/4 175/1/4
f 174/4/4 171/4/4 175/4/4
f 175/1/4 172/1/4 176/1/4
f 173/2/4 174/2/4 177/2/4
f 174/2/4 175/2/4 177/2/4
f 175/2/4 176/2/4 177/2/4
f 177/2/4 176/2/4 178/2/4
f 178/2/4 176/2/4 179/2/4
f 179/2/4 176/2/4 180/2/4
f 177/3/4 178/3/4 181/3/4
f 178/4/4 179/4/4 182/4/4
f 181/3/4 178/3/4 182/3/4
f 181/1/4 182/1/4 183/1/4
f 182/4/4 179/4/4 184/4/4
f 183/1/4 182/1/4 184/1/4
f 179/3/4 180/3/4 185/3/4
f 184/4/4 179/4/4 185/4/4
f 185/3/4 180/3/4 186/3/4
f 189/3/5 188/3/5 187/3/5
f 190/3/5 188/3/5 189/3/5
f 191/3/5 189/3/5 187/3/5
f 192/1/5 190/1/5 189/1/5
f 192/3/5 189/3/5 191/3/5
f 193/1/5 190/1/5 192/1/5
f 201/1/5 196/1/5 195/1/5
f 201/3/5 197/3/5 196/3/5
f 202/2/5 198/2/5 197/2/5
f 202/3/5 197/3/5 201/3/5
f 203/3/5 199/3/5 198/3/5
f 203/1/5 200/1/5 199/1/5
f 204/1/5 200/1/5 203/1/5
f 205/1/5 201/1/5 195/1/5
f 205/3/5 195/3/5 194/3/5
f 205/1/5 202/1/5 201/1/5
f 206/2/5 198/2/5 202/2/5
f 206/1/5 202/1/5 205/1/5
f 207/3/5 204/3/5 203/3/5
f 207/3/5 203/3/5 198/3/5
f 208/1/5 200/1/5 204/1/5
f 208/3/5 204/3/5 207/3/5
f 209/3/5 205/3/5 194/3/5
f 209/3/5 206/3/5 205/3/5
f 210/2/5 198/2/5 206/2/5
f 210/3/5 206/3/5 209/3/5
f 211/3/5 207/3/5 198/3/5
f 211/2/5 198/2/5 210/2/5
f 212/1/5 208/1/5 207/1/5
f 212/3/5 207/3/5 211/3/5
f 213/1/5 200/1/5 208/1/5
f 213/1/5 208/1/5 212/1/5
f 217/3/5 215/3/5 214/3/5
f 218/1/5 216/1/5 215/1/5
f 218/3/5 215/3/5 217/3/5
f 219/1/5 216/1/5 218/1/5
f 223/2/5 221/2/5 220/2/5
f 223/2/5 222/2/5 221/2/5
f 224/2/5 222/2/5 223/2/5
f 225/2/5 222/2/5 224/2/5
f 226/3/5 224/3/5 223/3/5
f 227/1/5 225/1/5 224/1/5
f 227/3/5 224/3/5 226/3/5
f 228/1/5 225/1/5 227/1/5
f 229/1/5 225/1/5 228/1/5
f 230/3/6 231/3/6 234/3/6
f 231/1/6 232/1/6 235/1/6
f 234/3/6 231/3/6 235/3/6
f 234/1/6 235/1/6 236/1/6
f 232/3/6 233/3/6 237/3/6
f 236/1/6 235/1/6 237/1/6
f 235/1/6 232/1/6 237/1/6
f 237/3/6 233/3/6 238/3/6
f 239/3/6 240/3/6 243/3/6
f 243/3/6 240/3/6 244/3/6
f 241/1/6 242/1/6 245/1/6
f 245/1/6 242/1/6 246/1/6
f 243/1/6 244/1/6 247/1/6
f 247/1/6 244/1/6 248/1/6
f 245/3/6 246/3/6 251/3/6
f 246/1/6 242/1/6 252/1/6
f 251/3/6 246/3/6 252/3/6
f 252/1/6 242/1/6 253/1/6
f 247/3/6 248/3/6 254/3/6
f 248/1/6 249/1/6 255/1/6
f 254/3/6 248/3/6 255/3/6
f 249/2/6 250/2/6 256/2/6
f 255/1/6 249/1/6 256/1/6
f 250/3/6 251/3/6 257/3/6
f 256/2/6 250/2/6 257/2/6
f 251/3/6 252/3/6 257/3/6
f 252/3/6 253/3/6 257/3/6
f 257/3/6 253/3/6 258/3/6
f 259/1/6 260/1/6 262/1/6
f 260/3/6 261/3/6 263/3/6
f 262/1/6 260/1/6 263/1/6
f 263/3/6 261/3/6 264/3/6
f 265/2/6 266/2/6 267/2/6
f 267/2/6 266/2/6 268/2/6
f 268/2/6 266/2/6 269/2/6
f 267/1/6 268/1/6 270/1/6
f 270/1/6 268/1/6 271/1/6
f 268/3/6 269/3/6 272/3/6
f 271/1/6 268/1/6 272/1/6
f 272/3/6 269/3/6 273/3/6
f 274/1/6 275/1/6 277/1/6
f 275/3/6 276/3/6 278/3/6
f 277/1/6 275/1/6 278/1/6
f 278/3/6 276/3/6 279/3/6
f 277/3/6 278/3/6 280/3/6
f 278/1/6 279/1/6 281/1/6
f 280/3/6 278/3/6 281/3/6
f 281/1/6 279/1/6 282/1/6
