# MagicaVoxel @ Ephtracy

# group
o 

# material
mtllib Keycard.mtl
usemtl palette

# normals
vn -1 0 0
vn 1 0 0
vn 0 0 1
vn 0 0 -1
vn 0 -1 0
vn 0 1 0

# texcoords
vt 0.818359 0.5
vt 0.822266 0.5
vt 0.826172 0.5
vt 0.830078 0.5
vt 0.833984 0.5

# verts
v -0.4 0 0.2
v -0.4 0 0.1
v -0.4 0 0
v -0.4 0 -0.1
v -0.4 0 -0.2
v -0.4 0 -0.3
v -0.4 0.1 0.2
v -0.4 0.1 0.1
v -0.4 0.1 0
v -0.4 0.1 -0.1
v -0.4 0.1 -0.2
v -0.4 0.1 -0.3
v 0.3 0 0.2
v 0.3 0 0.1
v 0.3 0 0
v 0.3 0 -0.3
v 0.3 0.1 0.2
v 0.3 0.1 0.1
v 0.3 0.1 0
v 0.3 0.1 -0.3
v -0.4 0 0.2
v -0.4 0.1 0.2
v 0.3 0 0.2
v 0.3 0.1 0.2
v -0.4 0 -0.3
v -0.4 0.1 -0.3
v -0.2 0 -0.3
v -0.2 0.1 -0.3
v 0.3 0 -0.3
v 0.3 0.1 -0.3
v -0.4 0 0.2
v 0.3 0 0.2
v -0.4 0 0.1
v 0.3 0 0.1
v -0.4 0 0
v 0.3 0 0
v -0.4 0 -0.1
v -0.3 0 -0.1
v -0.2 0 -0.1
v -0.1 0 -0.1
v 0.2 0 -0.1
v -0.4 0 -0.2
v -0.3 0 -0.2
v -0.1 0 -0.2
v 0.2 0 -0.2
v -0.4 0 -0.3
v -0.2 0 -0.3
v 0.3 0 -0.3
v -0.4 0.1 0.2
v 0.3 0.1 0.2
v -0.4 0.1 0.1
v 0.3 0.1 0.1
v -0.4 0.1 0
v 0.3 0.1 0
v -0.4 0.1 -0.1
v -0.3 0.1 -0.1
v -0.2 0.1 -0.1
v -0.1 0.1 -0.1
v 0.2 0.1 -0.1
v -0.4 0.1 -0.2
v -0.3 0.1 -0.2
v -0.1 0.1 -0.2
v 0.2 0.1 -0.2
v -0.4 0.1 -0.3
v -0.2 0.1 -0.3
v 0.3 0.1 -0.3

# faces
f 7/2/1 2/2/1 1/2/1
f 8/3/1 3/3/1 2/3/1
f 8/2/1 2/2/1 7/2/1
f 9/2/1 4/2/1 3/2/1
f 9/3/1 3/3/1 8/3/1
f 10/5/1 5/5/1 4/5/1
f 10/2/1 4/2/1 9/2/1
f 11/4/1 6/4/1 5/4/1
f 11/5/1 5/5/1 10/5/1
f 12/4/1 6/4/1 11/4/1
f 13/2/2 14/2/2 17/2/2
f 14/3/2 15/3/2 18/3/2
f 17/2/2 14/2/2 18/2/2
f 15/2/2 16/2/2 19/2/2
f 18/3/2 15/3/2 19/3/2
f 19/2/2 16/2/2 20/2/2
f 23/2/3 22/2/3 21/2/3
f 24/2/3 22/2/3 23/2/3
f 25/4/4 26/4/4 27/4/4
f 27/4/4 26/4/4 28/4/4
f 27/2/4 28/2/4 29/2/4
f 29/2/4 28/2/4 30/2/4
f 33/2/5 32/2/5 31/2/5
f 34/2/5 32/2/5 33/2/5
f 35/3/5 34/3/5 33/3/5
f 36/3/5 34/3/5 35/3/5
f 37/2/5 36/2/5 35/2/5
f 38/2/5 36/2/5 37/2/5
f 39/2/5 36/2/5 38/2/5
f 40/2/5 36/2/5 39/2/5
f 41/2/5 36/2/5 40/2/5
f 42/5/5 38/5/5 37/5/5
f 43/4/5 39/4/5 38/4/5
f 43/5/5 38/5/5 42/5/5
f 44/2/5 40/2/5 39/2/5
f 44/1/5 41/1/5 40/1/5
f 45/2/5 36/2/5 41/2/5
f 45/1/5 41/1/5 44/1/5
f 46/4/5 43/4/5 42/4/5
f 47/2/5 44/2/5 39/2/5
f 47/4/5 43/4/5 46/4/5
f 47/4/5 39/4/5 43/4/5
f 47/2/5 45/2/5 44/2/5
f 48/2/5 36/2/5 45/2/5
f 48/2/5 45/2/5 47/2/5
f 49/2/6 50/2/6 51/2/6
f 51/2/6 50/2/6 52/2/6
f 51/3/6 52/3/6 53/3/6
f 53/3/6 52/3/6 54/3/6
f 53/2/6 54/2/6 55/2/6
f 55/2/6 54/2/6 56/2/6
f 56/2/6 54/2/6 57/2/6
f 57/2/6 54/2/6 58/2/6
f 58/2/6 54/2/6 59/2/6
f 55/5/6 56/5/6 60/5/6
f 56/4/6 57/4/6 61/4/6
f 60/5/6 56/5/6 61/5/6
f 57/2/6 58/2/6 62/2/6
f 58/1/6 59/1/6 62/1/6
f 59/2/6 54/2/6 63/2/6
f 62/1/6 59/1/6 63/1/6
f 60/4/6 61/4/6 64/4/6
f 57/2/6 62/2/6 65/2/6
f 64/4/6 61/4/6 65/4/6
f 61/4/6 57/4/6 65/4/6
f 62/2/6 63/2/6 65/2/6
f 63/2/6 54/2/6 66/2/6
f 65/2/6 63/2/6 66/2/6
